<svg width="289" height="289" viewBox="0 0 289 289" xmlns="http://www.w3.org/2000/svg"><title>The Globe Church</title><g fill="none" fill-rule="evenodd"><path d="M287.5 144.498C287.5 65.524 223.476 1.5 144.5 1.5c-78.975 0-143 64.024-143 142.998 0 78.977 64.024 143.002 143 143.002 78.977 0 143-64.024 143-143.002z" stroke="#FFF" stroke-width="3"/><path d="M48.208 123c5.922 0 10.794 2.137 14.988 5.684.494.49.557 1.222.063 1.712-.926.977-1.85 1.892-2.777 2.87-.493.551-.987.489-1.604-.063-2.898-2.503-6.723-4.154-10.487-4.154-8.759 0-15.482 7.333-15.482 15.89 0 8.495 6.723 15.828 15.482 15.828 5.121 0 8.636-1.834 9.254-2.078v-6.845h-6.046c-.678 0-1.17-.488-1.17-1.1V147.2c0-.67.492-1.16 1.17-1.16h11.228c.616 0 1.11.55 1.11 1.16 0 4.89.063 9.9.063 14.789 0 .305-.247.793-.494.977 0 0-6.355 4.034-15.298 4.034C35.93 167 26 157.285 26 145.063 26 132.84 35.93 123 48.208 123m37.948 0h4.02c.61 0 1.16.552 1.16 1.17v36.119h16.505a1.16 1.16 0 0 1 1.159 1.166v3.377a1.16 1.16 0 0 1-1.159 1.168H86.156A1.16 1.16 0 0 1 85 164.832v-40.663c0-.617.488-1.169 1.156-1.169zm58.32 0c9.735 0 17.524 7.826 17.524 17.55 0 9.722-7.789 17.45-17.524 17.45-9.736 0-17.476-7.728-17.476-17.45 0-9.724 7.74-17.55 17.476-17.55zm0 30.138c6.96 0 12.657-5.639 12.657-12.588 0-6.907-5.698-12.69-12.657-12.69-6.912 0-12.609 5.783-12.609 12.69 0 6.95 5.697 12.588 12.61 12.588zM189 124.17c0-.617.49-1.169 1.166-1.169h13.762c7.436 0 12.78 4.914 12.78 11.363 0 4.731-3.5 8.11-6.39 9.77 3.259 1.35 7.682 4.362 7.682 10.013 0 6.88-5.653 11.854-13.394 11.854h-14.44a1.165 1.165 0 0 1-1.166-1.168v-40.663zm14.56 17.506c3.932 0 6.33-2.89 6.33-6.575 0-3.745-2.398-6.325-6.33-6.325h-8.294v12.9h8.294zm.983 18.674c3.75 0 6.635-2.888 6.635-6.693 0-3.749-3.563-6.452-7.555-6.452h-8.42v13.145h9.34zM239 124.17c0-.617.494-1.169 1.174-1.169h24.656c.678 0 1.17.552 1.17 1.17v3.44c0 .61-.492 1.165-1.17 1.165h-19.48v12.532h16.459c.616 0 1.172.554 1.172 1.165v3.441a1.17 1.17 0 0 1-1.172 1.168H245.35v13.208h19.479c.678 0 1.17.552 1.17 1.166v3.377c0 .617-.492 1.168-1.17 1.168h-24.656c-.68 0-1.174-.551-1.174-1.168v-40.663" fill="#FFF"/><rect fill="#FFF" x="132" y="164" width="26" height="4" rx="1.75"/></g></svg>
