<svg width="216" height="234" viewBox="0 0 216 234" xmlns="http://www.w3.org/2000/svg"><title>London City Mission</title><g transform="matrix(1 0 0 -1 0 233.6)" fill="#FFF"><path d="M138.2 150.15l-33.696 19.453 36.369 62.992 33.694-19.453-36.368-62.991m-14.368 34.554c-2.122 0-4.12-1.032-5.498-3.417-2.379-4.12-.846-7.541 2.387-9.408l11.79-6.808c1.195-.69 2.458-1.072 3.695-1.072 2.111 0 4.148 1.112 5.647 3.71 2.27 3.93.736 7.35-2.496 9.217l-2.632 1.52-2.268-3.931 2.757-1.592c1.49-.86 2.039-1.812 1.216-3.239-.517-.894-1.098-1.294-1.816-1.294-.552 0-1.184.237-1.928.666l-11.602 6.699c-1.709.988-2.242 1.97-1.326 3.556.34.59.935.976 1.754.976.588 0 1.293-.2 2.101-.667l1.774-1.025 2.27 3.93-1.68.971c-1.345.776-2.77 1.208-4.145 1.208m2.523 9.744l-2.268-3.93 22.886-13.212 2.268 3.93-22.886 13.212m7.249 4.648l19.461-11.236 2.27 3.931-19.462 11.236 2.196 3.804-3.424 1.976-6.661-11.537 3.423-1.978 2.197 3.804m3.95 14.75l-2.305-3.994 16.121-2.968 9.508-5.489 2.27 3.93-9.508 5.49-10.632 12.477-2.306-3.994 7.198-7.663-.036-.064-10.31 2.275M50.818.002l-33.144 19.42 59.521 101.58 29.133-16.82 4.12-2.414L50.818.002M28.646 26.625l-2.294-3.916 22.8-13.36 5.902 10.074-3.41 1.998-3.609-6.157-19.39 11.361M42.462 44.99c-2.096 0-4.124-1.102-5.63-3.674-2.406-4.105-.896-7.536 2.325-9.423l11.747-6.884c1.203-.705 2.477-1.095 3.727-1.095 2.096 0 4.124 1.1 5.63 3.671 2.406 4.107.896 7.538-2.325 9.424l-11.748 6.884c-1.203.704-2.477 1.097-3.726 1.097zm12.578-16.688c-.554 0-1.188.24-1.936.678l-11.558 6.773c-1.705 1-2.23 1.984-1.305 3.564.52.887 1.1 1.283 1.812 1.283.554 0 1.19-.241 1.936-.679l11.558-6.773c1.704-.999 2.23-1.984 1.303-3.564-.519-.887-1.098-1.282-1.81-1.282zM44.98 54.5l-2.127-3.632L65.65 37.51l2.073 3.536-14.243 8.346.038.064 17.165-3.357 1.998 3.41-22.8 13.36-2.072-3.537 13.042-7.641-.036-.065L44.979 54.5m16.087 21.66c-2.289 0-4.144-1.279-5.589-3.744l-3.404-5.81 22.799-13.36 3.405 5.81c2.369 4.042 1.416 7.484-3.257 10.224l-9.032 5.29c-1.822 1.069-3.46 1.59-4.922 1.59zm12.88-17.11l-16.36 9.583.798 1.36c.716 1.222 1.43 1.817 2.383 1.817.671 0 1.46-.295 2.453-.877l9.978-5.847c2.4-1.406 2.765-2.594 1.544-4.68l-.796-1.357zM69.94 91.883c-2.097 0-4.124-1.101-5.632-3.672-2.405-4.104-.893-7.535 2.327-9.422l11.747-6.886c1.203-.704 2.477-1.096 3.726-1.096 2.097 0 4.124 1.102 5.633 3.675 2.405 4.103.893 7.534-2.328 9.422L73.667 90.79c-1.203.703-2.477 1.094-3.727 1.094zm12.578-16.687c-.554 0-1.188.242-1.935.679l-11.558 6.773c-1.706.999-2.23 1.986-1.306 3.566.52.887 1.1 1.282 1.812 1.282.554 0 1.189-.24 1.937-.678l11.556-6.774c1.706-1 2.23-1.985 1.306-3.565-.52-.887-1.1-1.283-1.812-1.283zm-10.06 26.198l-2.129-3.631 22.801-13.36 2.072 3.537-14.242 8.345.037.063 17.166-3.354 1.998 3.41-22.799 13.359-2.072-3.536 13.042-7.643-.038-.064-15.836 2.874"/><path d="M181.93 64.486l-6.373 3.68 6.042 31.994-.118.068-15.364-26.61-6.609 3.814 24.596 42.603 6.785-3.919-5.158-29.512.117-.07 14.07 24.37 6.609-3.814-24.596-42.604m-41.055 22.917c-7.67 4.429-8.384 11.37-4.91 17.39l12.674 21.948c3.475 6.019 9.843 8.872 17.513 4.444 7.671-4.429 8.384-11.37 4.91-17.389l-12.674-21.95c-3.474-6.018-9.842-8.871-17.513-4.443m21.599 37.409c-2.951 1.704-4.78.715-6.62-2.472l-12.468-21.596c-1.84-3.185-1.782-5.265 1.168-6.968 2.95-1.704 4.78-.715 6.62 2.472l12.468 21.596c1.84 3.186 1.781 5.265-1.168 6.968m-47.28-21.795l24.597 42.602 7.316-4.224-24.596-42.603-7.317 4.225m-18.454 9.867c-6.785 3.92-7.546 11.595-4.163 18.137l7.543-3.016c-2.191-4.477-1.707-7.59.654-8.952 2.538-1.465 5.032-1.096 6.496 1.441 4.872 8.438-8.703 19.265-1.651 31.48 3.917 6.785 10.261 8.235 17.46 4.08 5.96-3.442 7.014-9.793 4.188-16.186l-7.404 3.252c1.816 3.83.481 6.016-1.171 6.97-2.36 1.362-4.544.578-6.077-2.078-4.189-7.257 8.67-19.325 1.992-30.888-4.053-7.023-11.022-8.19-17.867-4.24m-8.331 19.364c-4.053-7.021-11.022-8.19-17.866-4.239-6.787 3.918-7.547 11.595-4.163 18.138l7.543-3.016c-2.192-4.479-1.708-7.591.654-8.954 2.535-1.464 5.031-1.094 6.495 1.442 4.872 8.438-8.703 19.265-1.65 31.48 3.917 6.785 10.26 8.236 17.46 4.08 5.96-3.442 7.013-9.792 4.187-16.186l-7.405 3.252c1.817 3.83.483 6.015-1.169 6.97-2.36 1.362-4.544.577-6.077-2.078-4.19-7.257 8.67-19.324 1.99-30.889m-42.012 10.49l24.596 42.6 7.316-4.223-24.595-42.602-7.317 4.224m-14.102 8.142l19.214 33.278-.118.07-25.822-29.464-3.54 2.044L34.632 193.9l-.117.068-19.214-33.278-6.372 3.678 24.595 42.602 9.618-5.552-9.183-27.899.118-.068 19.568 21.903 9.618-5.554L38.668 147.2l-6.373 3.679m-2.058 64.554L0 163.061 185.59 55.912l30.237 52.371-185.59 107.15"/></g></svg>