<svg width="302" height="265" viewBox="0 0 302 265" xmlns="http://www.w3.org/2000/svg"><title>London City Mission</title><g fill="#FFF"><path d="M110.593 130L150 150.285 83.13 266H32l78.593-136zM89.658 238.626l-3.654-2.107-3.807 6.589-20.771-11.978-2.422 4.19 24.424 14.084 6.23-10.778zm-4.436-5.982c3.451 1.99 7.43 1.582 9.97-2.81 2.538-4.393.902-8.04-2.548-10.029l-12.583-7.257c-3.451-1.99-7.43-1.582-9.97 2.811-2.538 4.392-.903 8.039 2.548 10.029l12.583 7.256zm-10.06-11.388c-1.826-1.054-2.394-2.1-1.417-3.79.976-1.69 2.168-1.723 3.995-.67l12.38 7.14c1.827 1.054 2.395 2.102 1.417 3.791-.976 1.689-2.168 1.723-3.994.669l-12.381-7.14zm27.932-5.876l-15.255-8.798.039-.068 18.342 3.46 2.109-3.65-24.424-14.084-2.187 3.785 13.97 8.056-.038.067-16.92-2.954-2.246 3.885 24.423 14.086 2.187-3.785zm7.579-13.11l3.593-6.217c2.5-4.325 1.46-7.988-3.546-10.875l-9.675-5.58c-5.006-2.887-8.702-1.955-11.202 2.37l-3.594 6.218 24.424 14.084zM92.96 184.532c1.29-2.23 2.584-2.519 5.155-1.037l10.69 6.165c2.57 1.483 2.967 2.747 1.678 4.977l-.84 1.454-17.523-10.106.84-1.453zm21.557-2.57c3.45 1.99 7.43 1.581 9.968-2.811 2.54-4.393.904-8.039-2.546-10.029l-12.584-7.257c-3.451-1.99-7.43-1.582-9.97 2.811-2.538 4.393-.903 8.04 2.548 10.029l12.584 7.256zm-10.06-11.389c-1.827-1.052-2.395-2.1-1.418-3.79.976-1.69 2.168-1.723 3.995-.67l12.38 7.14c1.827 1.054 2.395 2.102 1.419 3.791-.977 1.69-2.17 1.723-3.996.67l-12.38-7.14zm27.932-5.876l-15.256-8.798.039-.068 18.342 3.46 2.109-3.65-24.424-14.084-2.187 3.785 13.971 8.056-.039.068-16.92-2.955-2.246 3.885 24.423 14.086 2.188-3.785z"/><path d="M-3-3h21.05L307 163.943V244L-3 64.898V-3zm87.526 46.294L62.069 68.447l-.135-.078L72.473 36.33l-11.038-6.377-28.226 48.924 7.313 4.226 22.05-38.218.135.078-14.466 42.6 4.063 2.347 29.634-33.836.135.078-22.05 38.218 7.314 4.225 28.226-48.924-11.037-6.377zm.078 65.278l28.226-48.925-8.396-4.852-28.227 48.925 8.397 4.852zm54.346-18.926c3.243-7.342 2.034-14.636-4.805-18.588-8.261-4.772-15.543-3.106-20.04 4.686-8.091 14.027 7.487 26.461 1.897 36.15-1.681 2.915-4.544 3.338-7.456 1.656-2.71-1.565-3.265-5.139-.75-10.281l-8.654-3.465c-3.884 7.515-3.012 16.33 4.775 20.83 7.855 4.538 15.853 3.195 20.505-4.868 7.663-13.282-7.095-27.139-2.286-35.474 1.759-3.049 4.265-3.95 6.974-2.385 1.896 1.096 3.427 3.606 1.34 8.003l8.5 3.736zm30.064 17.37c3.243-7.343 2.034-14.636-4.805-18.588-8.261-4.773-15.542-3.107-20.038 4.686-8.093 14.026 7.485 26.46 1.895 36.15-1.681 2.914-4.544 3.339-7.456 1.656-2.708-1.565-3.265-5.14-.75-10.28l-8.654-3.465c-3.884 7.513-3.012 16.33 4.776 20.828 7.854 4.539 15.852 3.197 20.504-4.867 7.663-13.281-7.095-27.138-2.286-35.473 1.759-3.05 4.265-3.951 6.974-2.386 1.896 1.096 3.427 3.607 1.342 8.003l8.498 3.735zm-5.458 47.17l28.227-48.923-8.397-4.851-28.226 48.924 8.396 4.85zm16.119-6.498c-3.988 6.912-3.17 14.884 5.633 19.97 8.803 5.086 16.11 1.809 20.098-5.102l14.544-25.208c3.987-6.912 3.169-14.884-5.634-19.97-8.802-5.086-16.11-1.809-20.098 5.103l-14.543 25.207zm22.822-20.152c2.112-3.66 4.21-4.795 7.597-2.84 3.386 1.957 3.453 4.345 1.342 8.004l-14.31 24.8c-2.11 3.66-4.21 4.796-7.596 2.84-3.385-1.956-3.452-4.344-1.341-8.003l14.308-24.801zm11.777 55.954l17.632-30.561.136.078-6.933 36.743 7.313 4.225 28.226-48.925-7.584-4.38-16.146 27.984-.135-.078 5.92-33.893-7.786-4.5-28.227 48.925 7.584 4.382z"/><path d="M188.623-3H240l-57.066 98L144 73.62 188.623-3zm-17.092 64.115l-1.802-1.032c-3.673-2.102-7.912-1.831-10.346 2.35-2.553 4.383-.908 8.022 2.561 10.007l12.65 7.241c3.47 1.986 7.47 1.579 10.022-2.804 2.435-4.182.79-7.82-2.679-9.805l-2.822-1.616-2.435 4.18 2.96 1.694c1.597.915 2.187 1.927 1.304 3.445-.983 1.685-2.18 1.719-4.017.667l-12.447-7.124c-1.836-1.052-2.406-2.098-1.424-3.783.628-1.079 2.062-1.517 4.136-.33l1.905 1.09 2.434-4.18zm21.6.361l-24.553-14.055-2.434 4.181 24.553 14.055 2.434-4.18zm4.104-7.047l2.434-4.18-20.88-11.953 2.356-4.046-3.672-2.102-7.148 12.272 3.673 2.103 2.357-4.046 20.88 11.952zm.42-24.08l-11.407-13.272-2.474 4.248 7.722 8.152-.039.068-11.06-2.42-2.474 4.248 17.297 3.157 10.202 5.84 2.435-4.181-10.202-5.84z"/></g></svg>
