<svg height="63" viewBox="0 0 172 63" width="172" xmlns="http://www.w3.org/2000/svg"><g fill="#fff" fill-rule="nonzero"><path d="m171.83 31.404-10.273-14.144-8.076 5.862 6.02 8.282-6.02 8.28 8.077 5.863m-1.765-30.707-10.27-14.144-16.627 5.4 3.08 9.492 9.736-3.16 6.01 8.274m8.071 27.265-8.07-5.862-6.01 8.276-9.736-3.16-3.08 9.49 16.625 5.4m-16.395-45.599-3.08-9.486-16.626 5.4v17.48h9.98v-10.232m9.726 26.622-9.728-3.162v-10.234h-9.98v17.48l16.625 5.4"/><path d="m22.638 2.386c-4.157 0-7.49 1.17-10.01 3.514-2.52 2.345-4.21 5.98-5.095 10.934l-.15.537h-5.51c-.486 1.283-.806 2.486-.984 3.636-.18 1.15-.27 2.32-.27 3.515h5.512l-4.856 27.054c1.592.265 3.067.417 4.44.417 1.502 0 3.115-.15 4.796-.416l4.826-27.053h7.24c.485-1.326.805-2.52.982-3.604s.268-2.263.268-3.545h-7.21l.12-.595c.265-1.373.577-2.513.953-3.398.377-.884.833-1.57 1.34-2.055.51-.487 1.088-.814 1.73-1.013.642-.2 1.35-.3 2.146-.3.664 0 1.302.04 1.877.15s1.123.27 1.698.447c.62-1.15 1.153-2.306 1.55-3.456.398-1.15.73-2.442 1.043-3.902-1.018-.31-2.014-.553-3.01-.686-.994-.132-2.142-.178-3.426-.178v.002zm9.92 9.21c-.044-1.547.055-3.018.3-4.41.242-1.394.63-2.865 1.16-4.413.796-.177 1.637-.298 2.522-.364.885-.067 1.68-.1 2.388-.1.707 0 1.492.033 2.355.1.862.065 1.67.186 2.42.363 0 1.548-.13 3.03-.396 4.446-.266 1.414-.664 2.873-1.194 4.377-.796.133-1.626.222-2.488.266-.863.045-1.648.067-2.355.067-.664 0-1.44-.022-2.324-.067-.885-.044-1.68-.133-2.388-.265v-.002zm-1.923 12.94h-4.18c0-.133-.012-.266-.034-.4-.02-.132-.03-.287-.03-.463 0-1.15.11-2.223.33-3.22.22-.994.553-2.022.996-3.084h13.402l-6.038 34.3c-1.682.266-3.274.4-4.777.4-1.372 0-2.854-.134-4.447-.4l4.78-27.135zm24.463 7.363c1.68-.266 3.052-.608 4.114-1.03 1.06-.42 1.902-.884 2.52-1.393.62-.508 1.04-1.027 1.26-1.558.222-.53.333-1.06.333-1.59 0-.843-.276-1.53-.83-2.06-.552-.53-1.293-.795-2.22-.795-1.15 0-2.202.254-3.153.762-.95.508-1.78 1.183-2.488 2.023s-1.316 1.802-1.825 2.886c-.51 1.083-.898 2.178-1.163 3.283l3.45-.53zm-3.782 6.765c.265 2.123.972 3.704 2.122 4.743 1.15 1.04 2.83 1.56 5.044 1.56 1.77 0 3.328-.188 4.677-.564 1.346-.377 2.773-.874 4.28-1.493.705.885 1.18 1.958 1.424 3.22.243 1.26.364 2.597.364 4.012-.753.353-1.626.674-2.62.96-.996.29-2.024.532-3.085.73-1.062.2-2.124.355-3.186.466-1.062.11-2.013.166-2.854.166-2.7 0-5.01-.332-6.933-.995-1.923-.664-3.516-1.604-4.776-2.82-1.26-1.217-2.19-2.698-2.787-4.446-.598-1.747-.896-3.683-.896-5.806 0-2.697.465-5.35 1.394-7.96.928-2.61 2.244-4.943 3.948-7 1.703-2.056 3.783-3.715 6.237-4.975 2.454-1.262 5.207-1.892 8.26-1.892 1.46 0 2.82.177 4.08.53 1.26.355 2.354.896 3.283 1.626.93.73 1.66 1.625 2.19 2.687.53 1.06.797 2.3.797 3.716 0 1.99-.465 3.713-1.395 5.173s-2.167 2.7-3.715 3.716-3.306 1.845-5.275 2.487c-1.968.642-4.014 1.117-6.137 1.427l-4.444.73h.002zm44.627 4.846c.486.796.884 1.746 1.194 2.853.31 1.106.465 2.565.465 4.378-1.416.62-2.92 1.063-4.512 1.328-1.593.265-3.34.398-5.24.398-5.043 0-8.736-1.227-11.08-3.682-2.345-2.455-3.518-5.827-3.518-10.12 0-2.608.432-5.228 1.294-7.86.863-2.63 2.134-4.997 3.815-7.098 1.68-2.1 3.75-3.815 6.206-5.142 2.455-1.327 5.297-1.99 8.526-1.99 1.504 0 2.964.11 4.38.33 1.414.222 2.763.575 4.045 1.063-.043 1.15-.242 2.378-.596 3.683-.354 1.304-.907 2.554-1.66 3.748-.972-.397-1.934-.706-2.885-.928-.95-.22-2.002-.332-3.152-.332-1.725 0-3.23.387-4.51 1.16-1.283.775-2.356 1.793-3.218 3.054-.863 1.26-1.504 2.71-1.925 4.346-.42 1.636-.63 3.34-.63 5.107 0 2.434.618 4.225 1.856 5.376 1.24 1.15 2.81 1.726 4.71 1.726.974 0 1.936-.09 2.887-.266.95-.176 2.134-.552 3.55-1.127v-.002z"/></g></svg>