<svg width="325" height="187" viewBox="0 0 325 187" xmlns="http://www.w3.org/2000/svg"><title>Artboard Copy</title><g fill="none" fill-rule="evenodd"><path fill="#0e0bbe" d="M28.402 1.63l132.07 108.574L292.54 1.63v76.422L160.47 186.796 28.402 78.222z"/><path d="M28.39 1.632v26.12h17.47V1.631h28.39v76.18H45.86V51.693H28.39v26.119H0V1.632h28.39zm113.294 38.09c0-7.618-5.444-13.06-11.976-13.06-6.532 0-11.975 5.442-11.975 13.06s5.443 13.06 11.975 13.06 11.976-5.442 11.976-13.06zm30.483 0c0 22.31-17.42 39.722-42.459 39.722-25.04 0-42.459-17.412-42.459-39.722C87.25 17.412 104.67 0 129.71 0c25.039 0 42.458 17.412 42.458 39.722zM217.979.544c23.687 0 34.453 10.883 34.453 26.663 0 15.78-10.766 26.663-29.07 26.663-4.307 0-9.69-.544-9.69-.544v24.486H185.68V1.632S200.753.544 217.98.544zm-4.307 32.649h4.307c3.768 0 6.46-2.721 6.46-5.986 0-3.265-2.692-5.986-6.46-5.986h-4.307v11.972zm78.941 17.412v5.441H325v22.006h-60.456V1.632H325v21.766h-32.387v5.441h28.069v21.766h-28.069z" fill="#FAFDF2"/></g></svg>