<?xml version="1.0" standalone="no"?>
<!DOCTYPE svg PUBLIC "-//W3C//DTD SVG 20010904//EN"
 "http://www.w3.org/TR/2001/REC-SVG-20010904/DTD/svg10.dtd">
<svg version="1.0" xmlns="http://www.w3.org/2000/svg"
 width="2130.000000pt" height="1584.000000pt" viewBox="0 0 2130.000000 1584.000000"
 preserveAspectRatio="xMidYMid meet">

<g transform="translate(0.000000,1584.000000) scale(0.100000,-0.100000)"
fill="#000000" stroke="none">
<path d="M0 7920 l0 -7920 10650 0 10650 0 0 7920 0 7920 -10650 0 -10650 0 0
-7920z m14424 7848 c3 -35 8 -108 12 -164 l6 -101 312 -6 c171 -4 345 -11 386
-17 41 -5 95 -12 120 -15 25 -2 78 -11 118 -20 40 -8 151 -24 247 -34 96 -11
179 -22 184 -25 5 -4 65 -18 133 -31 236 -49 359 -94 490 -180 47 -32 53 -39
55 -73 2 -60 33 -165 52 -179 12 -8 20 -31 24 -65 5 -36 13 -58 27 -70 16 -13
25 -40 36 -115 8 -54 25 -147 36 -208 12 -60 22 -117 23 -125 0 -9 4 -20 7
-26 9 -14 13 -118 5 -131 -8 -13 -20 -260 -13 -271 6 -9 26 -6 167 29 41 11
87 19 100 19 14 0 30 5 36 11 6 6 82 17 169 24 88 7 179 18 204 24 101 22 295
35 535 33 178 -1 211 -4 299 -26 54 -14 104 -30 110 -36 12 -12 10 -160 -3
-173 -16 -16 3 -407 20 -407 5 0 9 -15 9 -32 -1 -92 9 -180 21 -194 9 -11 13
-57 15 -157 1 -78 7 -180 14 -227 14 -98 6 -190 -16 -190 -19 0 -18 -19 2 -27
11 -4 14 -14 11 -33 l-6 -26 72 8 c40 5 86 13 103 18 17 6 59 15 95 20 35 5
89 14 119 19 93 17 200 29 308 36 57 3 116 8 131 11 15 3 46 1 68 -5 23 -6 64
-12 92 -12 28 -1 54 -6 57 -10 3 -5 16 -9 29 -9 13 0 27 -5 30 -10 5 -8 11 -8
19 0 10 7 20 3 40 -17 21 -21 29 -24 36 -14 11 19 35 8 56 -24 13 -20 15 -31
7 -44 -7 -10 -7 -23 -1 -37 7 -15 6 -30 -5 -50 -13 -25 -13 -31 1 -52 12 -19
13 -27 2 -46 -7 -13 -9 -30 -5 -37 13 -20 16 -87 5 -94 -6 -4 -9 -14 -6 -23
18 -64 26 -156 12 -159 -9 -2 -27 -31 -46 -71 -14 -31 -13 -95 2 -110 7 -7 20
-12 30 -12 22 0 22 -4 3 -55 -19 -53 -18 -62 5 -75 14 -8 25 -7 40 2 25 16 26
40 3 36 -13 -2 -19 5 -21 27 l-4 29 21 -24 c17 -21 20 -22 21 -7 0 34 18 16
24 -25 10 -73 9 -249 -2 -260 -12 -12 -42 12 -42 31 0 17 -27 13 -34 -4 -3 -9
0 -18 8 -21 7 -3 13 -10 14 -17 0 -7 3 -21 6 -32 2 -11 5 -23 5 -27 1 -5 10
-8 20 -8 32 0 36 -47 6 -77 -26 -27 -23 -44 13 -66 7 -5 10 -17 7 -26 -5 -17
2 -18 87 -16 51 1 126 9 166 18 51 11 80 13 98 7 30 -12 70 -4 78 16 7 19 75
19 82 -1 4 -8 15 -15 25 -15 12 0 16 -5 12 -15 -3 -10 5 -24 21 -38 14 -13 26
-28 26 -35 0 -7 7 -12 15 -12 11 0 15 -11 15 -40 0 -22 5 -40 11 -40 5 0 8 4
5 9 -3 5 4 11 15 14 12 3 18 10 14 16 -8 14 1 14 27 0 16 -8 19 -17 14 -40 -3
-15 -1 -31 5 -35 6 -3 9 -27 8 -53 -1 -25 1 -61 5 -78 10 -43 0 -74 -22 -67
-14 5 -14 3 2 -10 12 -9 17 -23 13 -36 -3 -13 0 -20 8 -20 17 0 28 -35 21 -65
-3 -13 -2 -27 4 -30 13 -8 13 -35 1 -35 -5 0 -11 9 -13 20 -2 15 -7 17 -18 10
-12 -8 -13 -13 -2 -30 11 -17 10 -20 -8 -20 -13 0 -18 -5 -14 -15 3 -8 13 -14
22 -13 72 5 87 -10 57 -56 -14 -21 -14 -25 0 -39 8 -9 15 -25 15 -36 0 -12 6
-21 14 -21 27 0 29 -128 2 -131 -6 -1 -16 -1 -23 0 -19 3 -38 -40 -22 -49 8
-5 13 -32 14 -70 1 -50 6 -67 24 -86 13 -13 27 -24 31 -24 14 0 35 -111 23
-118 -15 -9 -24 -70 -12 -78 5 -3 7 -9 4 -13 -2 -5 9 -11 25 -15 32 -6 40 -32
18 -54 -8 -8 -8 -15 2 -27 10 -12 10 -15 -3 -15 -10 0 -18 -12 -23 -34 -5 -27
-1 -40 15 -58 12 -12 20 -29 18 -38 -2 -8 3 -28 11 -44 7 -15 11 -38 8 -50 -3
-12 2 -35 10 -51 10 -19 13 -42 9 -63 -4 -24 -2 -39 9 -51 13 -14 14 -27 7
-65 -6 -36 -5 -55 6 -76 7 -16 15 -53 17 -83 2 -30 6 -59 10 -66 4 -6 3 -18
-3 -25 -15 -18 14 -56 45 -56 20 0 24 -5 24 -28 0 -32 -16 -53 -35 -46 -7 3
-16 1 -20 -5 -3 -6 -1 -11 4 -11 6 0 11 -6 11 -13 0 -7 7 -22 15 -33 12 -16
16 -17 24 -4 14 21 23 7 16 -23 -5 -19 -11 -24 -28 -19 -12 3 -26 10 -30 16
-5 6 -6 -1 -3 -17 5 -19 2 -29 -9 -33 -19 -8 -19 -30 0 -38 11 -4 13 -11 5
-30 -5 -13 -9 -33 -9 -43 1 -10 -2 -27 -6 -39 -4 -13 -1 -27 7 -35 24 -23 38
-79 32 -120 -5 -32 -3 -42 15 -56 19 -16 22 -32 28 -145 4 -92 3 -131 -6 -142
-9 -11 -7 -21 10 -50 13 -23 19 -45 15 -60 -4 -15 0 -28 9 -36 19 -16 20 -56
1 -67 -7 -4 -16 -29 -20 -56 -6 -38 -4 -48 8 -53 9 -3 16 -13 16 -22 0 -8 -3
-13 -6 -9 -8 8 -34 -18 -34 -33 0 -6 4 -9 9 -5 5 3 17 -2 25 -11 18 -17 22
-69 6 -79 -13 -8 4 -41 41 -79 15 -16 31 -41 34 -57 4 -15 13 -33 21 -40 8 -6
14 -19 14 -29 0 -18 68 -159 90 -185 7 -8 24 -15 39 -15 38 0 85 -100 84 -179
-2 -85 -1 -83 -23 -76 -16 5 -20 2 -20 -20 0 -17 -8 -29 -23 -36 -12 -5 -33
-26 -46 -45 -14 -19 -48 -51 -78 -71 l-53 -35 6 -51 c3 -28 7 -54 9 -58 6 -9
-34 -49 -50 -49 -7 0 -20 -7 -29 -15 -15 -16 -152 -75 -172 -75 -6 0 -17 -7
-25 -16 -7 -8 -29 -24 -48 -34 -20 -10 -65 -46 -100 -79 -35 -34 -69 -61 -75
-61 -6 0 -30 -22 -53 -48 -30 -36 -66 -60 -137 -95 -52 -26 -102 -47 -110 -47
-19 0 -50 45 -41 60 6 9 -14 15 -43 11 -7 -1 -48 -18 -90 -37 -42 -20 -93 -43
-112 -51 -59 -26 -192 -87 -224 -104 -23 -12 -32 -24 -34 -47 -3 -28 1 -33 46
-56 28 -14 63 -41 78 -59 16 -19 44 -42 63 -52 19 -9 46 -28 60 -41 33 -30 93
-52 99 -35 5 16 37 14 52 -4 7 -8 23 -15 36 -15 12 0 29 -7 38 -15 8 -8 19
-15 25 -15 13 0 51 -54 51 -74 0 -9 -18 -53 -41 -97 -23 -44 -44 -99 -47 -122
-5 -39 -37 -112 -63 -143 -16 -20 -49 -116 -49 -146 0 -14 -16 -57 -35 -94
-19 -37 -35 -76 -35 -88 0 -12 -9 -38 -20 -59 -17 -32 -20 -49 -14 -115 l6
-77 -66 -58 c-46 -41 -69 -69 -76 -95 -6 -20 -18 -51 -28 -69 -45 -84 -83
-143 -92 -143 -6 0 -10 -8 -10 -18 0 -20 -18 -42 -36 -42 -6 0 -41 22 -77 50
l-66 50 -48 -25 c-27 -13 -62 -35 -78 -49 -17 -14 -33 -26 -37 -26 -11 0 -102
-55 -294 -178 -44 -29 -84 -52 -89 -52 -5 0 -16 -6 -24 -13 -9 -8 -37 -22 -64
-31 -26 -10 -54 -24 -61 -32 -8 -8 -20 -14 -26 -14 -7 0 -2 -9 11 -19 21 -17
22 -22 12 -40 -17 -28 -16 -31 7 -31 11 0 20 -6 20 -13 0 -21 41 -50 110 -78
l65 -27 -2 -53 c-1 -30 -3 -74 -4 -99 -1 -25 2 -69 6 -97 5 -36 4 -53 -3 -53
-6 0 -14 5 -17 10 -4 6 -11 8 -16 4 -5 -3 -16 0 -24 6 -13 10 -15 8 -15 -16 0
-16 -3 -46 -6 -67 -6 -33 -4 -37 15 -37 11 0 21 -4 21 -10 0 -5 -4 -10 -8 -10
-12 0 -13 -57 -2 -86 5 -13 16 -24 25 -24 22 0 39 -48 24 -67 -9 -10 -9 -17
-1 -25 7 -7 12 -22 12 -35 0 -13 5 -23 10 -23 6 0 10 -15 10 -33 0 -70 71
-243 103 -253 10 -3 25 -20 33 -37 8 -18 20 -40 27 -49 9 -14 9 -22 -1 -38 -6
-11 -12 -26 -12 -34 0 -8 -6 -19 -13 -23 -7 -4 -20 -20 -30 -36 -10 -15 -24
-27 -32 -27 -8 0 -15 -5 -15 -10 0 -14 -51 -92 -70 -106 -8 -7 -32 -28 -53
-48 -20 -21 -42 -34 -47 -31 -5 3 -20 -3 -32 -14 -12 -12 -27 -21 -33 -21 -6
0 -24 -12 -41 -27 -88 -80 -144 -120 -221 -160 -109 -57 -148 -83 -318 -218
-35 -27 -76 -60 -92 -72 -15 -12 -39 -31 -53 -43 -14 -12 -38 -31 -53 -43 -29
-22 -56 -45 -92 -75 -27 -23 -372 -283 -401 -303 -13 -9 -43 -33 -67 -55 -23
-21 -74 -66 -112 -98 -39 -33 -74 -64 -80 -70 -5 -6 -28 -26 -50 -45 -61 -52
-190 -168 -316 -285 -36 -34 -94 -86 -129 -116 -35 -30 -76 -66 -91 -80 -47
-43 -149 -124 -177 -140 -15 -8 -29 -18 -32 -21 -3 -4 -14 -9 -26 -13 -17 -5
-29 4 -63 51 -24 31 -46 64 -49 72 -17 48 -82 131 -186 243 -25 26 -48 57 -52
70 -4 13 -22 41 -40 63 -17 22 -41 66 -52 98 -11 32 -29 65 -40 73 -23 16
-142 189 -142 206 0 14 -35 58 -97 123 -41 43 -53 62 -58 99 -6 34 -3 52 9 71
20 30 153 164 316 317 68 65 122 119 119 122 -7 7 -259 -87 -324 -122 -33 -17
-93 -48 -133 -68 -40 -21 -86 -49 -102 -63 -38 -36 -57 -48 -115 -75 -27 -13
-59 -33 -71 -44 -25 -24 -64 -45 -71 -39 -2 3 -13 -3 -24 -14 -10 -10 -30 -19
-44 -19 -14 0 -25 -4 -25 -10 0 -13 -135 -100 -154 -100 -9 0 -16 -4 -16 -9 0
-12 -114 -71 -138 -71 -11 0 -30 -11 -43 -25 -13 -13 -28 -25 -32 -25 -5 0
-15 -7 -23 -15 -9 -8 -31 -15 -50 -15 -19 0 -33 -4 -30 -9 6 -10 -57 -54 -94
-66 -14 -4 -36 -15 -50 -25 -14 -10 -83 -53 -155 -96 -71 -43 -136 -84 -143
-91 -7 -7 -17 -13 -22 -13 -7 0 -125 -73 -156 -97 -12 -9 -13 -10 -159 -101
-134 -83 -253 -151 -405 -230 -205 -106 -210 -110 -210 -179 0 -54 -16 -71
-75 -79 -67 -8 -101 -28 -110 -61 -12 -49 -21 -53 -100 -46 -73 6 -73 6 -86
-23 -15 -30 -51 -43 -72 -26 -7 5 -30 15 -52 22 -50 15 -144 60 -151 71 -3 5
-20 9 -38 9 -17 0 -36 4 -42 9 -5 5 -32 16 -61 25 -51 17 -53 17 -80 -3 -15
-12 -48 -24 -73 -27 -43 -6 -46 -5 -62 28 -9 18 -24 50 -32 71 -9 23 -25 41
-41 47 -15 6 -32 23 -38 40 -13 35 -6 34 -210 20 -78 -5 -261 -17 -407 -25
-363 -21 -834 -49 -1345 -80 -137 -8 -326 -20 -420 -25 -1034 -61 -993 -57
-1024 -86 -32 -30 -57 -31 -80 -2 -19 23 -4 23 -581 -12 -85 -6 -272 -17 -415
-25 -143 -9 -370 -22 -505 -30 -135 -8 -321 -19 -415 -25 -93 -5 -278 -17
-410 -25 -132 -8 -294 -17 -360 -20 -174 -9 -193 -12 -197 -38 -3 -22 -6 -22
-195 -22 -140 0 -195 3 -205 13 -6 6 -22 12 -33 12 -12 0 -44 11 -71 25 -56
29 -79 31 -88 10 -3 -8 -15 -15 -26 -15 -11 0 -29 -6 -40 -12 -30 -19 -51 0
-80 72 -17 42 -33 66 -48 71 -12 5 -24 14 -26 21 -2 7 -11 42 -20 78 -27 106
-54 213 -65 250 -5 19 -19 69 -30 110 -31 112 -140 404 -170 457 -15 24 -101
244 -101 256 0 5 -11 30 -24 56 -12 26 -29 63 -35 84 -15 45 -30 46 -74 7 -19
-16 -39 -30 -44 -30 -6 0 -18 -9 -28 -20 -10 -11 -22 -20 -26 -20 -11 0 -88
-57 -151 -112 -64 -55 -165 -128 -178 -128 -5 0 -10 -6 -10 -13 0 -7 -14 -24
-30 -37 -17 -14 -56 -49 -88 -77 -31 -29 -70 -58 -87 -64 -16 -7 -36 -17 -44
-23 -7 -6 -30 -16 -50 -23 -34 -12 -37 -11 -57 11 -12 13 -30 51 -40 83 -41
133 -96 212 -180 263 -22 13 -62 38 -91 57 -28 18 -56 33 -61 33 -5 0 -19 9
-32 20 -13 11 -35 23 -49 27 -33 8 -121 81 -121 101 0 8 -6 12 -14 9 -16 -6
-76 28 -76 43 0 6 6 20 13 31 11 18 8 23 -18 45 -16 13 -35 24 -41 24 -28 0
-35 27 -20 81 8 30 18 63 22 73 4 10 8 37 9 60 1 23 2 57 3 76 1 19 11 50 22
68 17 28 23 32 35 22 13 -10 13 -16 0 -41 -19 -35 -19 -35 1 -43 12 -5 15 -2
10 10 -3 8 1 25 9 37 22 32 20 112 -5 137 -11 11 -20 33 -20 51 0 35 -13 63
-45 99 -22 26 -55 103 -55 132 0 18 -26 32 -35 18 -3 -5 -49 -38 -103 -74 -53
-36 -114 -80 -134 -98 -20 -18 -76 -60 -123 -93 -64 -45 -92 -72 -112 -107
-27 -49 -47 -61 -74 -44 -18 10 -26 8 -84 -29 -49 -32 -100 -55 -118 -55 -8 0
-17 -3 -21 -7 -12 -12 -78 -32 -92 -26 -7 2 -25 44 -39 91 -15 48 -33 99 -41
114 -8 14 -14 35 -14 46 0 11 -12 48 -27 82 -27 60 -29 62 -109 101 -45 21
-89 39 -98 39 -28 0 -96 52 -102 77 -5 19 -11 23 -28 19 -33 -8 -50 7 -36 33
10 19 6 27 -34 65 -25 25 -47 39 -49 33 -3 -9 -9 -8 -21 2 -14 12 -16 24 -11
65 9 66 43 163 61 170 8 3 14 17 14 31 0 14 4 25 9 25 15 0 28 97 20 155 -4
32 -5 63 -2 71 3 8 -1 14 -11 14 -24 0 -20 36 6 54 12 9 18 19 14 23 -4 4 -10
3 -14 -2 -4 -6 -15 -11 -25 -13 -21 -4 -39 39 -36 83 2 17 0 36 -5 43 -9 16 2
92 14 92 5 0 7 -9 5 -19 -2 -11 2 -22 10 -24 14 -6 23 25 17 57 -3 16 -11 18
-48 13 -49 -5 -64 8 -64 58 0 14 -7 28 -15 31 -9 4 -16 20 -16 38 -1 17 -3 23
-6 14 -5 -22 -23 -24 -23 -3 0 8 -7 15 -15 15 -27 0 -75 30 -75 46 0 8 -7 17
-15 21 -16 6 -85 106 -85 123 0 5 -8 15 -18 22 -9 7 -55 56 -102 108 -46 52
-99 111 -117 130 -18 19 -33 40 -33 47 0 7 -4 13 -10 13 -5 0 -10 -5 -10 -11
0 -5 -5 -7 -11 -4 -6 4 -8 13 -5 21 3 8 -4 19 -16 25 -17 9 -19 18 -15 51 5
38 5 39 -21 33 -20 -4 -34 1 -54 20 -33 31 -34 36 -8 53 20 12 20 13 3 43 -10
16 -28 37 -40 45 -26 17 -29 44 -9 82 28 53 56 119 56 133 0 25 38 121 56 140
10 11 12 19 6 19 -7 0 -12 8 -12 17 0 9 -8 26 -19 37 -10 12 -25 41 -33 66 -8
25 -27 63 -42 84 -14 21 -26 51 -26 65 0 34 -14 56 -30 46 -7 -4 -25 7 -46 29
-19 20 -38 36 -42 36 -9 0 -17 14 -56 104 -26 58 -34 106 -17 106 4 0 6 12 3
27 -4 20 1 31 23 49 26 21 31 38 34 127 1 10 14 26 31 35 16 9 30 23 30 30 0
8 14 27 30 44 17 16 30 38 30 47 0 17 49 69 173 185 65 61 78 97 84 235 6 113
21 171 45 171 7 0 8 -12 4 -32 -4 -18 -8 -49 -10 -68 -2 -19 -1 -25 1 -13 4
20 33 54 33 39 0 -4 7 -1 15 8 8 8 15 19 15 25 0 6 4 11 9 11 5 0 11 8 14 18
2 9 8 26 13 36 6 15 4 18 -8 14 -10 -4 -19 1 -25 15 -6 12 -16 34 -23 48 -6
14 -10 37 -8 50 2 17 -1 23 -12 22 -9 -2 -25 15 -38 39 -20 36 -21 43 -7 50
20 12 19 28 -1 28 -17 0 -61 49 -56 63 1 5 -6 25 -18 44 -11 19 -17 40 -14 46
4 7 4 9 -1 5 -10 -9 -50 65 -60 110 -5 24 -3 33 9 38 9 3 16 12 16 20 0 8 5
14 11 14 12 0 39 25 39 36 0 4 -7 16 -17 26 -16 17 -9 24 20 19 4 0 7 4 7 9 0
6 -9 10 -20 10 -23 0 -47 36 -27 43 7 2 -1 15 -21 32 -19 16 -38 38 -42 49 -8
19 -9 18 -9 -7 -1 -16 -5 -26 -11 -22 -14 9 -13 -48 2 -63 16 -16 28 -15 28 3
0 28 18 15 34 -26 14 -35 15 -46 4 -70 -13 -30 -38 -40 -38 -15 0 7 -11 21
-25 30 -14 9 -25 23 -25 30 0 7 -18 36 -39 63 -22 27 -41 62 -43 78 -2 22 -8
30 -23 30 -13 0 -22 10 -28 30 -5 17 -18 49 -28 73 -28 64 -25 105 11 135 17
14 30 31 30 36 0 11 25 42 83 102 15 16 29 29 32 29 3 0 26 21 51 48 25 26 59
61 75 78 25 26 29 35 20 50 -9 18 -33 178 -35 237 -1 15 -7 27 -14 27 -8 0
-12 8 -10 17 2 10 -4 25 -13 34 -10 10 -22 49 -28 90 -7 41 -16 82 -21 91 -6
10 -10 28 -10 41 0 13 -7 32 -15 43 -8 10 -15 31 -15 47 0 15 -4 27 -8 27 -15
0 -28 75 -20 124 5 40 4 52 -10 62 -14 10 -14 16 -4 38 10 23 9 26 -8 26 -19
0 -23 8 -34 75 -2 17 -14 68 -26 115 -12 47 -23 101 -25 120 -1 19 -7 47 -13
62 -6 14 -9 50 -7 79 2 31 0 56 -7 60 -5 4 -14 25 -19 48 -5 22 -13 58 -17 80
-5 21 -20 56 -33 77 -42 68 -59 115 -60 167 0 29 -2 77 -2 107 -2 50 0 56 24
67 15 7 40 14 55 15 28 3 37 8 88 54 25 23 27 28 20 84 -5 47 -3 65 10 86 10
15 23 23 31 20 8 -3 17 -1 20 4 4 6 17 10 30 10 31 0 49 32 47 86 -3 56 18 72
88 73 79 1 94 3 101 13 4 6 40 14 80 18 62 7 89 17 164 59 50 28 94 51 98 51
5 0 32 11 60 23 97 44 94 43 177 95 19 12 42 22 51 22 23 0 55 73 50 116 -1
11 4 26 12 32 8 7 12 23 9 37 -5 27 15 85 29 85 5 0 9 6 9 14 0 7 9 16 20 19
14 3 18 10 14 22 -5 11 0 18 15 22 12 3 21 13 21 24 0 11 5 19 11 19 5 0 7 5
4 10 -11 18 -43 11 -50 -11 -11 -33 -30 -16 -33 31 -2 29 1 48 10 55 8 5 17
18 21 28 4 11 14 17 24 15 14 -2 19 -15 21 -55 2 -33 8 -53 17 -57 10 -3 15 1
15 14 0 24 18 36 33 21 21 -21 29 -11 25 28 -3 35 -1 40 22 45 14 3 32 18 43
37 17 31 17 32 -8 55 -14 13 -25 33 -25 45 0 15 -5 19 -15 15 -8 -3 -15 0 -15
6 0 6 -8 17 -17 25 -17 13 -16 14 4 8 26 -7 37 7 28 36 l-7 21 -24 -23 -23
-22 6 39 c3 22 12 43 20 47 14 8 17 44 7 71 -5 12 -9 13 -24 3 -11 -6 -22 -8
-26 -5 -11 12 6 58 21 58 19 0 20 -5 -15 65 -16 33 -30 71 -30 84 0 16 -4 21
-15 17 -8 -3 -14 -2 -12 2 4 15 -43 108 -67 131 -14 14 -26 30 -26 36 0 6 -9
29 -20 50 -20 39 -25 52 -54 169 -16 64 -7 96 27 96 26 0 78 55 71 74 -7 18
55 60 106 71 41 9 72 25 83 43 8 12 147 82 163 82 15 0 44 34 44 51 0 22 30
40 59 34 15 -3 38 11 79 49 31 29 68 61 81 72 13 10 74 64 135 119 61 55 129
114 151 130 22 16 49 37 60 47 32 29 243 188 250 188 3 0 11 5 18 10 34 28
115 90 119 90 4 0 193 122 213 137 21 16 203 134 220 143 16 8 249 164 255
171 7 8 156 111 181 125 11 6 22 14 25 17 10 9 -26 99 -51 129 -14 17 -23 34
-19 39 7 12 -27 68 -46 74 -8 3 -24 20 -34 39 -14 26 -29 38 -62 47 -26 8 -46
21 -50 32 -3 10 -18 33 -33 50 -15 18 -36 48 -47 67 -20 36 -52 69 -69 70 -5
0 -26 17 -47 37 -45 44 -49 77 -12 116 14 15 30 42 36 60 6 17 14 34 17 37 11
9 44 63 73 119 21 42 26 63 22 91 -6 38 3 52 50 75 11 6 27 23 34 38 7 15 24
35 38 44 14 9 32 30 41 47 18 37 72 96 88 96 6 0 19 -9 29 -21 23 -28 62 -20
172 31 104 49 103 49 264 54 81 2 161 10 200 20 77 19 209 41 375 61 66 8 145
19 175 25 30 6 84 14 120 20 36 5 88 13 115 19 28 5 156 12 285 15 129 3 271
10 315 16 44 5 119 10 167 12 76 3 88 5 88 21 0 13 9 17 43 17 23 0 116 5 207
10 276 17 645 39 835 50 99 6 288 17 420 25 132 8 321 19 420 25 99 6 288 17
420 25 256 16 885 53 1435 85 184 11 448 27 585 35 138 8 324 20 415 25 91 6
278 17 415 25 263 16 430 26 840 50 408 24 576 34 840 50 355 21 707 42 1020
60 149 9 281 17 295 19 14 2 50 4 81 5 l57 1 6 -62z m5234 -3851 c8 3 12 -7
12 -34 0 -33 -3 -38 -25 -39 -15 -1 -25 3 -25 12 0 8 -4 14 -10 14 -5 0 -10 7
-10 16 0 9 6 14 13 11 10 -4 13 2 10 21 -4 24 -3 25 9 11 7 -9 19 -14 26 -12z
m700 -699 c7 -7 12 -25 12 -40 0 -16 6 -31 14 -34 8 -3 12 -12 9 -20 -12 -31
-77 62 -66 94 6 15 16 15 31 0z m-18598 -218 c0 -11 -4 -20 -9 -20 -5 0 -7 9
-4 20 3 11 7 20 9 20 2 0 4 -9 4 -20z m18788 -845 c18 -39 15 -55 -10 -54 -13
0 -17 3 -10 6 17 7 15 42 -3 49 -8 4 -12 10 -9 15 9 16 20 10 32 -16z m247
-1305 c3 -5 1 -10 -4 -10 -6 0 -11 5 -11 10 0 6 2 10 4 10 3 0 8 -4 11 -10z
m235 -1546 c0 -8 -4 -12 -10 -9 -5 3 -10 10 -10 16 0 5 5 9 10 9 6 0 10 -7 10
-16z m-1180 -1523 c0 -10 -26 -9 -36 2 -4 4 2 7 14 7 12 0 22 -4 22 -9z
m-18370 -2732 c0 -6 -10 -33 -22 -61 -17 -40 -23 -46 -30 -34 -8 14 3 70 19
99 6 11 33 8 33 -4z m-40 -127 c0 -5 -6 -17 -14 -27 -13 -18 -14 -18 -9 8 5
24 23 39 23 19z"/>
<path d="M11920 13910 l0 -190 150 0 150 0 0 55 0 55 -80 0 c-97 0 -107 18
-12 22 l67 3 3 53 3 52 -70 0 c-56 0 -71 3 -71 15 0 12 15 15 76 15 l75 0 -3
53 -3 52 -142 3 -143 3 0 -191z"/>
<path d="M12313 14080 c-38 -23 -55 -51 -56 -96 -1 -50 21 -82 80 -110 29 -15
53 -30 53 -35 0 -15 -54 -10 -78 7 -22 15 -24 15 -37 -2 -33 -45 -39 -63 -25
-79 23 -27 82 -46 147 -46 101 0 153 39 153 116 0 54 -20 80 -88 114 -45 23
-53 31 -39 36 9 4 31 2 48 -5 16 -7 31 -11 33 -9 41 55 47 70 34 86 -37 45
-167 59 -225 23z"/>
<path d="M12570 14035 l0 -65 50 0 50 0 0 -125 0 -125 70 0 70 0 0 125 0 125
50 0 50 0 0 65 0 65 -170 0 -170 0 0 -65z"/>
<path d="M12952 13921 c-29 -99 -52 -184 -52 -190 0 -7 28 -11 75 -11 71 0 75
1 81 25 5 20 12 25 40 25 28 0 35 -5 40 -25 6 -24 9 -25 84 -25 l78 0 -44 148
c-24 81 -49 166 -55 190 l-11 42 -92 0 -92 0 -52 -179z m158 -38 c0 -15 -6
-23 -16 -23 -12 0 -15 6 -10 23 3 12 6 29 6 37 1 25 20 -11 20 -37z"/>
<path d="M13274 14086 c-3 -7 -4 -35 -2 -62 l3 -49 47 -3 47 -3 3 -122 3 -122
68 -3 67 -3 0 125 0 125 53 3 52 3 0 60 0 60 -168 3 c-136 2 -168 0 -173 -12z"/>
<path d="M13660 13910 l0 -190 150 0 150 0 0 55 0 55 -80 0 c-47 0 -80 4 -80
10 0 6 30 10 70 10 l70 0 0 55 0 55 -70 0 c-56 0 -70 3 -70 15 0 12 15 15 75
15 l75 0 0 55 0 55 -145 0 -145 0 0 -190z"/>
<path d="M14110 13910 l0 -190 70 0 70 0 0 92 c0 51 4 88 8 83 5 -6 20 -47 33
-92 l24 -83 57 0 57 0 29 93 30 92 1 -92 1 -93 70 0 70 0 0 190 0 190 -98 0
-99 0 -28 -95 c-15 -53 -32 -92 -36 -88 -4 4 -18 46 -32 93 l-24 85 -102 3
-101 3 0 -191z"/>
<path d="M14761 14068 c-5 -18 -28 -96 -51 -173 -23 -77 -43 -148 -46 -157 -5
-16 3 -18 75 -18 75 0 80 1 83 23 2 17 10 23 40 25 32 3 37 0 40 -20 3 -21 8
-23 81 -26 42 -2 77 1 77 5 -1 4 -25 89 -54 188 l-54 180 -90 3 -90 3 -11 -33z
m109 -157 c0 -11 3 -26 6 -35 4 -11 1 -16 -10 -16 -12 0 -16 10 -16 35 0 19 5
35 10 35 6 0 10 -9 10 -19z"/>
<path d="M15100 13910 l0 -191 67 3 66 3 1 55 1 55 58 6 c72 8 107 32 127 87
13 37 13 47 0 85 -12 34 -24 46 -60 65 -38 19 -60 22 -152 22 l-108 0 0 -190z
m180 75 c10 -12 10 -18 0 -30 -25 -30 -61 -7 -46 30 3 8 12 15 19 15 8 0 20
-7 27 -15z"/>
<path d="M19554 12254 c3 -9 6 -19 6 -24 0 -4 9 -6 20 -3 l21 6 -20 18 c-25
23 -35 24 -27 3z"/>
<path d="M19520 12201 c0 -6 9 -9 20 -8 11 1 20 5 20 9 0 4 -9 8 -20 8 -11 0
-20 -4 -20 -9z"/>
<path d="M1586 12065 c4 -8 8 -15 10 -15 2 0 4 7 4 15 0 8 -4 15 -10 15 -5 0
-7 -7 -4 -15z"/>
<path d="M18608 12053 c7 -3 16 -2 19 1 4 3 -2 6 -13 5 -11 0 -14 -3 -6 -6z"/>
<path d="M19560 12050 c19 -13 30 -13 30 0 0 6 -10 10 -22 10 -19 0 -20 -2 -8
-10z"/>
<path d="M17210 11900 c0 -5 12 -10 26 -10 14 0 23 4 19 10 -3 6 -15 10 -26
10 -10 0 -19 -4 -19 -10z"/>
<path d="M18935 11780 c3 -5 8 -10 11 -10 2 0 4 5 4 10 0 6 -5 10 -11 10 -5 0
-7 -4 -4 -10z"/>
<path d="M19581 11774 c0 -11 3 -14 6 -6 3 7 2 16 -1 19 -3 4 -6 -2 -5 -13z"/>
<path d="M19570 11727 c0 -7 6 -21 13 -32 13 -16 14 -15 9 13 -4 31 -22 46
-22 19z"/>
<path d="M19115 11690 c-3 -5 -1 -10 4 -10 6 0 11 5 11 10 0 6 -2 10 -4 10 -3
0 -8 -4 -11 -10z"/>
<path d="M17690 11643 c0 -13 5 -23 10 -23 13 0 13 11 0 30 -8 12 -10 11 -10
-7z"/>
<path d="M19551 11641 c-10 -6 -10 -10 -1 -16 13 -8 24 -1 19 14 -3 6 -10 7
-18 2z"/>
<path d="M19650 11610 c0 -22 5 -40 10 -40 6 0 10 18 10 40 0 22 -4 40 -10 40
-5 0 -10 -18 -10 -40z"/>
<path d="M19581 11594 c0 -11 3 -14 6 -6 3 7 2 16 -1 19 -3 4 -6 -2 -5 -13z"/>
<path d="M17790 11556 c0 -7 -10 -17 -22 -21 l-23 -8 23 -4 c12 -2 22 -9 22
-14 0 -5 5 -9 10 -9 6 0 10 7 10 16 0 8 5 12 10 9 17 -10 11 4 -10 25 -14 14
-20 16 -20 6z"/>
<path d="M19625 11540 c-19 -7 -19 -8 -2 -15 19 -8 31 -2 26 13 -2 5 -13 6
-24 2z"/>
<path d="M17822 11465 c0 -16 2 -22 5 -12 2 9 2 23 0 30 -3 6 -5 -1 -5 -18z"/>
<path d="M19600 11480 c0 -5 4 -10 9 -10 6 0 13 5 16 10 3 6 -1 10 -9 10 -9 0
-16 -4 -16 -10z"/>
<path d="M3250 11371 c-106 -33 -162 -109 -162 -222 0 -147 109 -239 269 -226
151 12 245 132 215 274 -23 110 -119 184 -236 182 -34 0 -72 -4 -86 -8z m130
-166 c32 -34 30 -83 -5 -112 -34 -30 -60 -29 -90 2 -35 34 -34 86 1 114 35 28
65 26 94 -4z"/>
<path d="M3673 11373 c-9 -6 -13 -70 -15 -226 l-3 -217 83 0 82 0 0 69 0 68
63 5 c86 7 124 29 149 85 35 80 11 154 -63 198 -28 17 -55 20 -159 23 -69 1
-130 -1 -137 -5z m206 -132 c12 -22 -3 -46 -36 -56 -21 -6 -23 -3 -23 34 0 37
2 41 25 41 13 0 29 -8 34 -19z"/>
<path d="M4769 11352 c-161 -84 -158 -321 5 -410 48 -26 179 -23 233 6 23 12
44 26 48 31 4 8 -61 121 -70 121 -2 0 -16 -7 -31 -15 -56 -29 -112 -9 -129 45
-7 23 12 80 27 80 5 0 7 4 4 8 -9 15 64 13 93 -3 17 -8 32 -15 35 -15 10 0 75
114 69 123 -3 5 -29 20 -57 33 -74 34 -156 33 -227 -4z"/>
<path d="M6168 11374 c-16 -5 -18 -25 -18 -225 l0 -219 80 0 80 0 0 70 c0 39
4 70 10 70 5 0 26 -31 45 -70 l35 -70 95 0 95 0 -52 81 c-43 67 -49 84 -40 98
66 90 49 194 -39 246 -28 17 -54 20 -154 22 -66 1 -128 -1 -137 -3z m203 -130
c18 -21 0 -48 -35 -52 -24 -3 -26 0 -26 32 0 31 3 36 24 36 13 0 29 -7 37 -16z"/>
<path d="M6776 11373 c-26 -7 -87 -46 -108 -70 -74 -82 -63 -255 20 -325 79
-66 207 -76 297 -24 l45 27 -36 57 c-20 31 -38 58 -39 60 -2 2 -17 -4 -34 -12
-16 -9 -42 -16 -56 -16 -36 0 -75 42 -75 80 0 38 39 80 75 80 14 0 40 -7 56
-16 17 -8 32 -14 34 -12 14 16 65 105 65 114 0 7 -23 24 -52 38 -40 20 -66 26
-112 25 -34 -1 -70 -4 -80 -6z"/>
<path d="M19601 11364 c0 -11 3 -14 6 -6 3 7 2 16 -1 19 -3 4 -6 -2 -5 -13z"/>
<path d="M2580 11151 l0 -220 38 -3 c20 -2 56 -1 80 1 l42 3 0 74 0 74 55 0
55 0 0 -75 0 -75 80 0 80 0 0 220 0 220 -80 0 -80 0 0 -75 0 -75 -55 0 -55 0
0 75 0 75 -80 0 -80 0 0 -219z"/>
<path d="M4110 11150 l1 -220 180 0 179 0 0 60 0 60 -95 0 c-88 0 -95 1 -95
20 0 18 7 20 80 20 l80 0 0 60 0 60 -80 0 c-73 0 -80 2 -80 20 0 19 7 20 90
20 l90 0 0 60 0 60 -175 0 -176 0 1 -220z"/>
<path d="M5120 11150 l0 -220 80 0 80 0 0 75 0 75 55 0 55 0 0 -75 0 -75 80 0
80 0 0 220 0 220 -80 0 -80 0 0 -75 0 -75 -55 0 -55 0 0 75 0 75 -80 0 -80 0
0 -220z"/>
<path d="M5640 11222 c0 -134 2 -152 23 -192 12 -25 28 -44 35 -42 6 1 11 -3
10 -9 -5 -21 61 -51 122 -56 72 -7 132 13 178 58 47 46 62 110 62 261 l0 128
-80 0 -80 0 0 -121 c0 -125 -6 -151 -41 -169 -16 -9 -26 -8 -45 5 -23 15 -24
19 -24 150 l0 135 -80 0 -80 0 0 -148z"/>
<path d="M7083 11150 l1 -220 83 0 83 0 0 75 0 75 55 0 55 0 0 -75 0 -75 80 0
80 0 0 220 0 220 -80 0 -80 0 0 -75 0 -75 -55 0 -55 0 0 75 0 75 -84 0 -84 0
1 -220z"/>
<path d="M1830 11331 c0 -6 5 -13 10 -16 6 -3 10 1 10 9 0 9 -4 16 -10 16 -5
0 -10 -4 -10 -9z"/>
<path d="M19650 11327 c0 -9 -6 -17 -14 -17 -8 0 -18 -4 -21 -10 -3 -5 3 -10
14 -10 19 0 39 35 27 47 -3 4 -6 -1 -6 -10z"/>
<path d="M19540 11270 c0 -5 7 -10 15 -10 8 0 15 5 15 10 0 6 -7 10 -15 10 -8
0 -15 -4 -15 -10z"/>
<path d="M1840 11240 c0 -5 5 -10 11 -10 5 0 7 5 4 10 -3 6 -8 10 -11 10 -2 0
-4 -4 -4 -10z"/>
<path d="M9269 11058 c-40 -95 -92 -218 -115 -273 -23 -55 -42 -101 -41 -102
5 -5 331 -142 333 -140 3 3 225 531 227 540 2 6 -312 147 -327 147 -2 0 -37
-78 -77 -172z"/>
<path d="M1875 11210 c3 -5 10 -10 16 -10 5 0 9 5 9 10 0 6 -7 10 -16 10 -8 0
-12 -4 -9 -10z"/>
<path d="M19520 11212 c0 -4 11 -9 26 -10 14 -1 23 2 19 8 -7 12 -45 14 -45 2z"/>
<path d="M1898 11140 c-18 -21 -13 -26 11 -11 7 5 12 14 10 20 -3 7 -11 3 -21
-9z"/>
<path d="M20248 11093 c7 -3 16 -2 19 1 4 3 -2 6 -13 5 -11 0 -14 -3 -6 -6z"/>
<path d="M1800 10958 c0 -36 11 -68 21 -62 5 3 9 18 9 35 0 16 5 29 11 29 5 0
7 5 4 10 -3 6 -15 10 -26 10 -13 0 -19 -7 -19 -22z"/>
<path d="M1860 10934 c0 -24 18 -29 32 -9 12 16 9 22 -12 28 -16 4 -20 0 -20
-19z"/>
<path d="M19805 10890 c3 -5 8 -10 11 -10 2 0 4 5 4 10 0 6 -5 10 -11 10 -5 0
-7 -4 -4 -10z"/>
<path d="M2590 10820 c0 -5 31 -121 69 -257 38 -136 74 -267 80 -290 l12 -43
144 0 143 0 11 33 c5 17 40 140 76 272 36 132 70 252 75 268 l9 27 -123 0
-123 0 -28 -162 c-16 -90 -32 -167 -36 -172 -9 -10 -9 -12 -44 187 l-27 147
-119 0 c-70 0 -119 -4 -119 -10z"/>
<path d="M3351 10807 c-5 -14 -44 -143 -86 -288 -42 -145 -78 -270 -80 -276
-3 -10 25 -13 119 -13 l124 0 6 45 7 45 58 0 c63 0 70 -8 71 -67 0 -23 2 -23
125 -23 69 0 125 1 125 3 -1 1 -40 135 -88 297 l-87 295 -143 3 c-142 3 -142
3 -151 -21z m168 -274 c16 -80 15 -83 -19 -83 -17 0 -30 5 -30 12 0 26 24 128
31 128 3 0 11 -26 18 -57z"/>
<path d="M3850 10643 c0 -104 5 -205 10 -225 19 -68 70 -130 133 -162 155 -79
342 -21 408 126 21 48 23 70 27 251 l4 197 -111 0 -111 0 0 -174 c0 -160 -2
-175 -21 -200 -40 -51 -117 -22 -121 47 -1 17 -2 39 -4 47 -1 8 -2 75 -3 148
l-1 132 -105 0 -105 0 0 -187z"/>
<path d="M4490 10825 c0 -3 36 -70 79 -151 l79 -146 -70 -121 c-38 -67 -76
-134 -84 -149 l-15 -28 125 0 125 0 32 85 c18 47 36 85 39 85 4 0 22 -38 39
-85 l33 -85 126 0 c73 0 121 4 114 9 -8 4 -13 11 -13 15 3 20 0 26 -11 20 -7
-4 -8 -3 -4 4 4 6 -23 63 -59 125 -36 63 -65 120 -65 127 0 7 34 75 75 151 41
76 75 141 75 144 0 3 -56 5 -124 5 l-124 0 -28 -79 c-15 -44 -31 -78 -35 -75
-4 2 -19 38 -34 79 l-28 75 -123 0 c-68 0 -124 -2 -124 -5z"/>
<path d="M5178 10530 l-3 -300 108 0 107 0 0 105 0 105 75 0 75 0 0 -105 0
-105 108 0 107 0 -3 300 -3 300 -104 0 -105 0 0 -105 0 -105 -75 0 -75 0 0
105 0 105 -105 0 -104 0 -3 -300z"/>
<path d="M5996 10822 c-2 -4 -43 -139 -89 -300 l-85 -292 123 0 123 0 6 45 7
45 58 0 c63 0 70 -8 71 -67 0 -23 2 -23 125 -23 69 0 125 1 125 3 0 1 -40 135
-88 297 l-87 295 -142 3 c-78 1 -144 -1 -147 -6z m163 -289 c16 -80 15 -83
-20 -83 -30 0 -31 1 -25 33 4 17 9 49 13 70 3 20 9 37 13 37 4 0 12 -26 19
-57z"/>
<path d="M6530 10530 l0 -300 225 0 225 0 0 95 0 95 -115 0 -115 0 0 205 0
205 -110 0 -110 0 0 -300z"/>
<path d="M7058 10530 l-3 -300 225 0 225 0 -3 95 -3 95 -115 0 -114 0 0 205 0
205 -105 0 -104 0 -3 -300z"/>
<path d="M1715 10771 c-7 -12 0 -16 48 -29 22 -6 37 -7 37 -1 0 5 -5 9 -11 9
-5 0 -8 4 -5 9 3 5 -4 11 -17 15 -31 8 -45 7 -52 -3z"/>
<path d="M1590 10617 c0 -7 7 -22 16 -33 14 -17 15 -17 10 -1 -3 10 -6 25 -6
33 0 8 -4 14 -10 14 -5 0 -10 -6 -10 -13z"/>
<path d="M1715 10590 c-3 -5 -1 -10 4 -10 6 0 11 5 11 10 0 6 -2 10 -4 10 -3
0 -8 -4 -11 -10z"/>
<path d="M11863 10577 c3 -9 -11 -22 -39 -35 -62 -30 -57 -48 15 -63 42 -8 58
-15 54 -24 -7 -19 84 -59 125 -56 28 2 32 0 32 -22 0 -31 83 -91 115 -83 11 3
31 9 44 12 22 6 23 5 16 -25 -5 -24 -3 -31 8 -31 9 0 18 13 22 30 5 25 12 30
35 30 15 0 33 7 40 15 11 13 7 15 -23 15 -27 0 -34 4 -33 18 0 9 -5 16 -13 14
-7 -1 -18 4 -25 13 -16 21 -66 33 -101 24 -36 -10 -51 2 -36 28 17 33 -6 46
-40 23 -45 -33 -71 -39 -96 -23 l-23 15 40 29 c39 28 51 49 29 49 -6 0 -30
-13 -53 -29 -32 -22 -43 -26 -43 -14 0 8 11 19 24 24 20 7 22 12 13 29 -18 33
-99 67 -87 37z m2 -67 c3 -5 -1 -10 -9 -10 -9 0 -16 5 -16 10 0 6 4 10 9 10 6
0 13 -4 16 -10z m345 -140 c8 -5 12 -11 10 -13 -3 -2 -19 -13 -35 -24 -30 -21
-31 -21 -55 -2 -24 19 -25 20 -6 34 22 17 64 19 86 5z"/>
<path d="M20380 10546 c0 -14 5 -26 10 -26 6 0 10 7 10 15 0 8 0 18 1 22 0 4
-4 9 -10 11 -6 2 -11 -8 -11 -22z"/>
<path d="M10121 10387 c-64 -286 -88 -403 -82 -408 3 -4 53 -17 111 -29 58
-12 112 -24 121 -26 14 -4 13 -18 -8 -132 -13 -70 -25 -132 -27 -139 -4 -8
-15 -9 -38 -4 -27 7 -160 31 -191 35 -8 1 -147 -463 -147 -489 0 -10 205 -75
246 -79 12 -1 21 15 35 61 l17 63 -56 16 c-31 9 -61 20 -66 24 -5 5 6 62 25
129 38 140 22 131 178 101 57 -11 105 -19 106 -18 1 2 18 91 38 198 20 107 43
226 52 264 8 38 13 71 11 73 -4 5 -144 38 -200 48 -45 7 -44 -8 -1 190 43 198
43 182 -1 193 -22 6 -53 12 -71 16 l-32 5 -20 -92z"/>
<path d="M20415 10470 c3 -5 8 -10 11 -10 2 0 4 5 4 10 0 6 -5 10 -11 10 -5 0
-7 -4 -4 -10z"/>
<path d="M9103 10197 c-57 -144 -105 -269 -108 -278 -5 -14 17 -26 117 -64 68
-27 144 -56 169 -66 l47 -18 17 47 c10 26 56 144 103 262 46 118 87 222 89
231 5 17 -20 28 -272 124 l-60 23 -102 -261z"/>
<path d="M20471 10414 c0 -11 3 -14 6 -6 3 7 2 16 -1 19 -3 4 -6 -2 -5 -13z"/>
<path d="M12378 10278 c-2 -14 -11 -24 -23 -26 -20 -3 -61 -49 -53 -58 3 -2
20 2 39 10 19 7 49 11 68 9 l33 -6 -28 -22 c-31 -25 -26 -47 6 -27 11 7 29 12
41 12 19 0 21 -4 16 -35 -7 -45 9 -46 75 -4 46 30 63 59 34 59 -7 0 -19 7 -26
15 -14 16 -124 79 -157 89 -17 6 -22 2 -25 -16z m57 -28 c3 -5 1 -10 -4 -10
-6 0 -11 5 -11 10 0 6 2 10 4 10 3 0 8 -4 11 -10z m90 -50 c3 -5 -1 -10 -9
-10 -9 0 -16 5 -16 10 0 6 4 10 9 10 6 0 13 -4 16 -10z m5 -44 c0 -3 -4 -8
-10 -11 -5 -3 -10 -1 -10 4 0 6 5 11 10 11 6 0 10 -2 10 -4z"/>
<path d="M20430 10250 c0 -5 7 -10 15 -10 8 0 15 5 15 10 0 6 -7 10 -15 10 -8
0 -15 -4 -15 -10z"/>
<path d="M20000 10230 c0 -5 5 -10 10 -10 6 0 10 5 10 10 0 6 -4 10 -10 10 -5
0 -10 -4 -10 -10z"/>
<path d="M12585 10139 c-54 -41 -58 -46 -50 -59 5 -7 18 -3 42 16 19 14 36 24
38 22 3 -2 0 -20 -5 -38 -12 -40 1 -60 25 -40 13 11 15 9 15 -14 0 -18 8 -30
29 -41 37 -19 52 -2 20 24 l-22 18 24 16 c28 20 46 21 78 3 l24 -13 -37 -28
c-39 -30 -42 -47 -10 -50 10 -1 31 -6 47 -10 31 -8 38 10 7 20 -30 10 -24 26
7 19 22 -6 25 -4 19 11 -5 15 -2 17 23 12 23 -5 29 -3 25 7 -5 14 -54 40 -61
32 -2 -2 -16 7 -29 21 -21 21 -32 25 -66 20 -38 -5 -39 -4 -23 13 22 24 1 38
-24 16 -25 -22 -29 -20 -33 16 -2 17 -7 33 -13 34 -5 1 -28 -11 -50 -27z"/>
<path d="M17946 10155 c-3 -8 -1 -15 4 -15 6 0 10 7 10 15 0 8 -2 15 -4 15 -2
0 -6 -7 -10 -15z"/>
<path d="M12940 9968 c0 -7 -19 -26 -41 -42 -29 -20 -38 -31 -30 -39 8 -8 14
-8 23 1 7 7 23 12 36 12 22 0 24 -3 19 -30 -9 -44 10 -46 28 -4 8 20 18 35 21
32 2 -3 -1 -18 -8 -33 -11 -25 -10 -29 15 -51 47 -40 90 -26 107 34 14 51 15
49 -30 57 -24 4 -41 13 -45 24 -10 33 -95 68 -95 39z m60 -38 c0 -5 -7 -10
-15 -10 -8 0 -15 5 -15 10 0 6 7 10 15 10 8 0 15 -4 15 -10z m90 -63 c0 -20
-21 -37 -46 -37 -31 0 -41 20 -19 37 24 17 65 17 65 0z"/>
<path d="M2673 9890 l-43 -19 0 -57 c0 -47 3 -55 16 -50 9 3 27 9 40 12 l24 6
0 -116 0 -116 65 0 65 0 0 180 0 180 -62 -1 c-39 0 -80 -8 -105 -19z"/>
<path d="M2980 9888 c-67 -46 -98 -124 -80 -203 26 -114 150 -170 250 -114
113 64 113 254 0 318 -52 29 -126 28 -170 -1z m110 -103 c28 -34 9 -125 -26
-125 -18 0 -34 32 -34 70 0 59 32 89 60 55z"/>
<path d="M3297 9878 c-3 -18 -9 -58 -12 -88 -6 -54 -6 -55 24 -73 17 -10 36
-15 42 -12 5 4 21 4 35 1 19 -5 25 -12 22 -29 -4 -27 -29 -33 -67 -14 -29 15
-30 14 -55 -24 l-26 -38 32 -23 c43 -30 148 -38 193 -14 108 59 69 216 -55
216 -16 0 -30 5 -30 10 0 6 28 10 65 10 l65 0 0 55 0 55 -114 0 -114 0 -5 -32z"/>
<path d="M3677 9903 c-4 -3 -7 -30 -7 -60 l0 -53 50 0 50 0 0 -120 0 -120 65
0 65 0 0 120 0 120 49 0 50 0 3 50 3 51 58 -104 c53 -98 57 -109 57 -171 l0
-66 65 0 65 0 0 70 c0 67 2 74 60 176 33 58 60 108 60 110 0 3 -35 4 -77 2
l-76 -3 -15 -43 c-16 -48 -24 -46 -42 11 l-12 37 -232 0 c-128 0 -236 -3 -239
-7z"/>
<path d="M4390 9730 l0 -180 140 0 140 0 0 55 0 55 -75 0 c-43 0 -75 4 -75 10
0 6 28 10 65 10 l65 0 0 50 0 50 -66 0 c-48 0 -65 3 -62 13 3 7 29 13 71 15
l67 3 0 49 0 50 -135 0 -135 0 0 -180z"/>
<path d="M4712 9733 l3 -178 63 -3 62 -3 0 56 c0 30 3 55 8 55 4 0 18 -23 32
-51 14 -28 30 -53 36 -56 6 -2 41 -3 78 -1 l67 3 -41 65 c-34 51 -40 67 -31
80 23 32 33 66 28 103 -11 80 -63 107 -207 107 l-100 0 2 -177z m174 66 c8
-14 -21 -43 -35 -35 -19 12 -13 46 8 46 11 0 23 -5 27 -11z"/>
<path d="M5144 9900 c-11 -4 -33 -23 -48 -41 -23 -27 -27 -40 -23 -71 7 -49
19 -64 79 -94 74 -37 59 -61 -19 -29 -20 8 -37 14 -38 13 -37 -57 -44 -76 -32
-87 29 -23 89 -41 142 -41 92 0 145 40 145 110 0 48 -21 75 -82 106 -37 19
-47 29 -39 37 8 8 20 7 45 -5 l33 -16 21 37 c21 36 21 39 4 54 -38 34 -135 49
-188 27z"/>
<path d="M5543 9890 c-39 -23 -53 -48 -53 -93 0 -45 32 -84 87 -108 24 -10 41
-23 38 -29 -9 -14 -35 -12 -69 5 -15 8 -30 15 -31 15 -9 0 -44 -73 -39 -81 3
-5 23 -18 44 -29 53 -27 154 -27 194 -1 84 56 69 157 -28 197 -25 10 -46 25
-46 32 0 17 31 15 57 -3 20 -14 23 -13 43 20 27 43 22 57 -23 78 -48 23 -134
22 -174 -3z"/>
<path d="M5780 9850 l0 -60 45 0 45 0 0 -120 0 -120 65 0 65 0 0 120 0 120 50
0 50 0 0 60 0 60 -160 0 -160 0 0 -60z"/>
<path d="M6140 9730 l0 -180 65 0 64 0 3 58 3 57 30 -55 30 -55 73 -3 c44 -2
72 1 72 7 0 6 -16 36 -36 67 -35 54 -36 58 -21 83 26 44 30 92 10 131 -28 54
-70 70 -190 70 l-103 0 0 -180z m168 58 c-5 -34 -38 -37 -38 -4 0 20 5 26 21
26 15 0 20 -5 17 -22z"/>
<path d="M6510 9730 l0 -180 140 0 140 0 0 55 0 55 -75 0 c-43 0 -75 4 -75 10
0 6 28 10 65 10 l65 0 0 50 0 50 -65 0 c-51 0 -65 3 -65 15 0 12 14 15 70 15
l70 0 0 50 0 50 -135 0 -135 0 0 -180z"/>
<path d="M6837 9739 c-4 -94 -4 -175 -1 -180 3 -5 68 -9 145 -9 l139 0 0 55 0
55 -75 0 c-43 0 -75 4 -75 10 0 6 28 10 65 10 l65 0 0 50 0 50 -65 0 c-36 0
-65 4 -65 9 0 4 32 12 70 15 l70 7 0 50 0 49 -133 0 -134 0 -6 -171z"/>
<path d="M7140 9850 l0 -60 45 0 44 0 3 -117 3 -118 65 0 65 0 3 118 3 117 44
0 45 0 0 60 0 60 -160 0 -160 0 0 -60z"/>
<path d="M13138 9816 c-69 -37 -76 -56 -17 -49 41 6 42 5 36 -19 -8 -31 5 -43
55 -52 39 -7 113 7 123 24 11 18 -6 50 -35 65 -36 19 -50 19 -50 1 0 -22 -19
-29 -36 -15 -10 8 -13 21 -9 40 3 15 3 29 -2 32 -4 2 -34 -10 -65 -27z m165
-63 c12 -11 -15 -33 -41 -33 -24 0 -25 1 -7 20 18 20 36 25 48 13z m-93 -7 c0
-2 -7 -6 -15 -10 -8 -3 -15 -1 -15 4 0 6 7 10 15 10 8 0 15 -2 15 -4z"/>
<path d="M20540 9800 c0 -5 5 -10 10 -10 6 0 10 5 10 10 0 6 -4 10 -10 10 -5
0 -10 -4 -10 -10z"/>
<path d="M1341 9704 c0 -11 3 -14 6 -6 3 7 2 16 -1 19 -3 4 -6 -2 -5 -13z"/>
<path d="M20540 9690 c0 -5 5 -10 10 -10 6 0 10 5 10 10 0 6 -4 10 -10 10 -5
0 -10 -4 -10 -10z"/>
<path d="M9706 9503 c-2 -10 -7 -40 -11 -68 -6 -48 -5 -51 24 -68 34 -20 36
-24 21 -47 -8 -13 -10 -12 -10 4 0 12 -5 16 -15 12 -10 -4 -15 1 -15 15 0 11
-4 17 -10 14 -5 -3 -10 -19 -10 -35 0 -16 -4 -31 -9 -34 -5 -3 -11 -23 -14
-43 -3 -21 -10 -58 -16 -82 -20 -75 18 -147 47 -88 10 20 11 19 11 -15 1 -26
6 -38 15 -38 11 0 13 9 9 35 -4 28 -2 39 12 49 17 12 15 15 -23 41 -24 16 -42
35 -42 46 0 24 5 24 42 -2 33 -24 49 -18 25 9 -23 25 -21 40 6 44 19 3 22 8
19 41 -2 21 2 37 8 37 5 0 10 18 10 39 0 22 6 42 13 45 7 3 -2 16 -25 36 -21
18 -38 41 -38 51 0 24 -17 25 -24 2z m56 -108 c-4 -25 -22 -25 -22 0 0 9 -6
12 -15 9 -18 -7 -19 0 -4 27 10 19 12 19 28 5 12 -11 16 -25 13 -41z m-37
-115 c3 -5 1 -10 -4 -10 -6 0 -11 5 -11 10 0 6 2 10 4 10 3 0 8 -4 11 -10z
m-47 -160 c-15 -24 -22 -19 -13 9 3 12 11 19 16 16 5 -4 3 -14 -3 -25z"/>
<path d="M4870 9468 c0 -1 16 -34 35 -72 41 -82 43 -91 13 -75 -22 12 -22 11
-8 -6 14 -17 13 -18 -2 -12 -10 3 -18 4 -18 1 0 -13 32 -64 47 -76 10 -7 18
-20 18 -28 0 -8 7 -14 16 -12 9 1 19 -4 22 -12 4 -10 1 -13 -9 -9 -10 3 -12 0
-8 -10 3 -9 12 -18 20 -21 9 -3 12 -11 8 -17 -3 -6 -2 -14 4 -18 6 -3 12 -13
14 -21 2 -8 11 -21 21 -29 10 -7 16 -19 14 -25 -3 -7 8 -28 24 -47 37 -44 45
-56 87 -121 9 -16 21 -28 25 -28 11 0 46 -42 47 -55 0 -6 8 -17 18 -26 9 -8
42 -44 72 -79 79 -91 151 -170 184 -202 15 -16 25 -28 22 -28 -4 0 -1 -6 6
-14 7 -7 18 -12 24 -9 6 2 14 -3 18 -12 4 -11 2 -14 -7 -9 -16 10 9 -21 57
-71 24 -25 40 -35 43 -27 3 6 9 12 15 12 6 0 5 -7 -3 -16 -11 -13 -10 -17 4
-25 9 -6 17 -17 17 -24 0 -8 6 -15 14 -15 8 0 18 -9 21 -21 4 -11 12 -18 18
-16 6 2 18 -1 25 -7 34 -27 59 -53 64 -67 3 -8 9 -10 14 -6 5 4 2 12 -6 17 -8
5 -11 12 -7 16 11 11 36 -16 30 -33 -5 -12 -2 -15 14 -11 15 4 22 -2 30 -23 6
-15 7 -29 2 -31 -4 -2 14 -21 41 -43 27 -22 60 -48 72 -59 13 -10 33 -22 46
-27 13 -5 20 -13 17 -19 -3 -5 2 -10 13 -10 10 0 44 -18 75 -40 30 -22 60 -40
66 -40 6 0 11 -4 11 -8 0 -4 31 -25 70 -45 38 -21 72 -42 75 -46 3 -5 28 -21
57 -36 29 -15 72 -41 95 -56 102 -70 532 -269 683 -315 30 -9 67 -23 81 -30
14 -7 41 -16 59 -19 19 -3 39 -10 45 -14 10 -8 95 -31 112 -31 4 0 1 5 -7 10
-13 8 -12 10 3 10 9 0 17 -5 17 -11 0 -5 5 -7 10 -4 6 3 23 -3 38 -14 15 -11
34 -19 42 -19 36 2 51 -3 44 -14 -5 -8 -2 -9 10 -5 18 7 143 -20 163 -35 6 -5
39 -11 72 -13 38 -2 67 -10 77 -19 8 -9 18 -16 22 -16 4 0 50 -9 104 -20 86
-17 138 -25 233 -35 17 -2 53 -8 80 -13 28 -6 57 -10 65 -10 8 0 31 -2 50 -6
19 -3 79 -8 133 -11 83 -5 97 -3 97 10 0 16 -45 22 -54 6 -3 -5 -16 -7 -28 -3
-21 5 -21 6 -2 13 19 8 8 9 -94 14 -18 1 -38 7 -44 13 -9 9 -3 10 23 7 107
-13 179 -15 179 -5 0 5 -19 10 -43 10 -63 0 -442 51 -477 64 -8 3 -31 7 -50 9
-45 5 -309 63 -380 83 -30 8 -72 20 -92 26 -21 6 -36 14 -33 18 3 5 -4 6 -15
3 -11 -3 -26 -1 -33 4 -6 5 -27 10 -45 11 -19 2 -54 13 -80 27 -25 13 -49 22
-54 19 -4 -3 -8 0 -8 5 0 6 -13 11 -29 11 -36 0 -63 9 -56 20 3 4 -11 11 -31
15 -20 3 -44 10 -53 14 -53 27 -110 51 -120 51 -6 0 -11 5 -11 10 0 6 -8 10
-18 10 -10 0 -22 4 -27 9 -6 5 -28 14 -50 21 -22 7 -58 24 -80 37 -48 28 -135
70 -155 75 -8 2 -23 11 -34 21 -11 9 -26 17 -34 17 -8 0 -28 10 -45 22 -18 13
-34 22 -37 21 -3 -1 -34 17 -70 40 -36 23 -69 44 -75 46 -5 2 -17 9 -25 16 -8
7 -46 29 -85 49 -38 20 -77 45 -86 56 -9 11 -19 17 -21 14 -3 -3 -26 11 -51
30 -25 19 -65 47 -87 61 -39 25 -80 58 -122 98 -10 9 -21 17 -24 17 -12 0
-129 92 -183 143 -18 18 -30 26 -27 20 4 -7 3 -13 -2 -13 -6 0 -12 7 -16 15
-3 8 -9 14 -13 13 -4 -1 -18 4 -31 11 -18 10 -21 15 -12 26 9 11 7 13 -14 9
-22 -4 -27 0 -34 28 -5 19 -15 32 -22 30 -18 -4 -72 49 -65 66 2 7 1 11 -3 8
-13 -8 -174 165 -272 294 -19 25 -41 51 -48 59 -7 7 -10 21 -7 31 4 13 -18 50
-69 118 -41 55 -116 162 -165 238 -50 77 -100 151 -111 166 -12 15 -20 29 -18
32 2 3 -4 11 -14 18 -9 7 -18 22 -20 32 -2 15 -28 37 -28 24z m64 -194 c9 -22
-3 -32 -14 -14 -12 19 -12 30 -1 30 5 0 12 -7 15 -16z m826 -1024 c0 -5 -2
-10 -4 -10 -3 0 -8 5 -11 10 -3 6 -1 10 4 10 6 0 11 -4 11 -10z m651 -436 c8
-10 8 -14 0 -14 -6 0 -11 4 -11 9 0 5 -13 11 -28 14 -28 6 -92 54 -92 69 0 9
115 -59 131 -78z m-196 58 c-3 -3 -11 0 -18 7 -9 10 -8 11 6 5 10 -3 15 -9 12
-12z m50 -32 c3 -5 1 -10 -4 -10 -6 0 -11 5 -11 10 0 6 2 10 4 10 3 0 8 -4 11
-10z m55 -33 c11 -5 9 -6 -4 -4 -11 1 -21 9 -23 17 -3 10 -2 11 4 4 4 -6 15
-14 23 -17z m91 -44 c16 -10 29 -21 29 -26 0 -5 -3 -7 -7 -5 -49 24 -63 32
-63 40 0 12 8 10 41 -9z m95 -21 c-4 -3 -14 2 -24 12 -16 18 -16 18 6 6 13 -6
21 -14 18 -18z m0 -47 c24 -18 7 -19 -26 0 -16 9 -19 14 -9 15 8 0 24 -7 35
-15z m229 -73 c-3 -3 -11 0 -18 7 -9 10 -8 11 6 5 10 -3 15 -9 12 -12z m390
-240 c-3 -3 -11 0 -18 7 -9 10 -8 11 6 5 10 -3 15 -9 12 -12z m130 -42 c3 -5
1 -10 -4 -10 -6 0 -11 5 -11 10 0 6 2 10 4 10 3 0 8 -4 11 -10z m135 -30 c0
-5 -4 -10 -10 -10 -5 0 -10 5 -10 10 0 6 5 10 10 10 6 0 10 -4 10 -10z m470
-134 c0 -2 -7 -7 -16 -10 -8 -3 -12 -2 -9 4 6 10 25 14 25 6z m75 -26 c3 -5
-3 -10 -14 -10 -12 0 -21 5 -21 10 0 6 6 10 14 10 8 0 18 -4 21 -10z m52 -16
c-3 -3 -12 -4 -19 -1 -8 3 -5 6 6 6 11 1 17 -2 13 -5z m100 -13 c22 -7 33 -6
37 2 2 7 5 4 5 -5 1 -21 -2 -22 -59 -4 -49 16 -34 22 17 7z m113 -21 c0 -5 -4
-10 -10 -10 -5 0 -10 5 -10 10 0 6 5 10 10 10 6 0 10 -4 10 -10z m60 -12 c0
-4 -9 -8 -20 -8 -11 0 -20 4 -20 8 0 4 9 8 20 8 11 0 20 -4 20 -8z m115 -18
c25 -8 20 -8 -25 -5 -30 3 -58 9 -64 15 -10 10 44 5 89 -10z m165 -20 c11 -7
7 -10 -17 -10 -18 0 -33 5 -33 10 0 13 30 13 50 0z"/>
<path d="M20572 9415 c0 -16 2 -22 5 -12 2 9 2 23 0 30 -3 6 -5 -1 -5 -18z"/>
<path d="M1398 9423 c7 -3 16 -2 19 1 4 3 -2 6 -13 5 -11 0 -14 -3 -6 -6z"/>
<path d="M20105 9420 c-3 -5 -1 -10 4 -10 6 0 11 5 11 10 0 6 -2 10 -4 10 -3
0 -8 -4 -11 -10z"/>
<path d="M11031 9217 c-54 -125 -123 -282 -125 -285 -2 -1 -29 9 -61 23 -31
14 -58 25 -59 23 -11 -15 -46 -111 -43 -114 13 -13 232 -104 234 -97 2 5 45
106 96 225 l94 216 -59 26 -59 25 -18 -42z"/>
<path d="M11747 9134 c-26 -59 -46 -107 -45 -108 2 -1 84 -39 183 -83 501
-226 738 -334 775 -353 l40 -21 45 96 c24 53 46 103 47 111 2 10 -90 57 -317
160 -176 80 -333 151 -350 159 -168 77 -298 135 -313 139 -15 5 -26 -11 -65
-100z"/>
<path d="M10356 9122 c-14 -41 -25 -76 -24 -77 2 -1 89 -31 195 -67 l192 -64
19 55 c38 108 56 90 -161 163 l-194 66 -27 -76z"/>
<path d="M1342 9145 c0 -16 2 -22 5 -12 2 9 2 23 0 30 -3 6 -5 -1 -5 -18z"/>
<path d="M9165 9089 c-10 -40 -14 -74 -9 -78 5 -4 35 -13 67 -20 33 -7 57 -18
57 -25 0 -18 -47 -206 -53 -212 -3 -3 -22 -1 -42 5 -33 9 -37 8 -46 -15 -5
-14 -9 -29 -9 -34 0 -5 -29 -127 -64 -272 -102 -414 -164 -671 -168 -692 -2
-16 7 -22 52 -33 30 -8 56 -16 58 -18 4 -4 -45 -186 -52 -193 -3 -2 -35 4 -71
13 -36 10 -67 16 -69 14 -2 -2 -13 -37 -23 -76 -18 -66 -19 -73 -4 -77 187
-56 263 -77 265 -74 3 3 147 507 149 522 1 5 -17 15 -40 23 -24 8 -43 19 -43
24 0 9 40 177 129 544 36 145 38 150 62 147 24 -3 25 1 90 267 l65 269 -60 15
c-113 29 -195 47 -209 47 -10 0 -21 -24 -32 -71z"/>
<path d="M9609 8988 c-1 -7 -1 -19 0 -26 2 -8 -4 -28 -12 -45 -19 -42 -31
-153 -17 -162 14 -9 12 -25 -3 -25 -18 0 -37 -43 -37 -85 0 -35 16 -47 26 -20
5 12 11 11 35 -7 44 -32 50 -11 7 24 -39 31 -49 62 -23 71 9 4 22 -5 35 -24
12 -16 26 -26 31 -23 7 4 5 12 -4 22 -7 10 -23 34 -35 55 -21 37 -15 40 20 9
23 -20 36 -9 30 28 -3 20 0 30 8 30 9 0 8 6 -3 18 -23 25 -21 40 3 44 12 2 21
6 20 11 0 4 0 20 0 35 0 16 -7 37 -15 48 -15 19 -15 19 -30 0 -14 -19 -15 -19
-15 7 0 26 -19 39 -21 15z m61 -73 c0 -8 -7 -15 -15 -15 -9 0 -12 6 -9 15 4 8
10 15 15 15 5 0 9 -7 9 -15z m-46 -81 c10 -4 15 -17 15 -33 -2 -24 -2 -24 -6
-3 -3 15 -10 22 -19 18 -8 -3 -14 1 -14 9 0 17 2 17 24 9z"/>
<path d="M9796 8962 c-17 -57 -126 -441 -126 -445 0 -3 16 -8 36 -11 27 -6 34
-11 30 -24 -3 -9 -22 -84 -41 -167 -20 -82 -51 -213 -70 -289 -19 -77 -35
-141 -35 -144 0 -2 -16 -2 -35 1 -30 5 -36 3 -40 -16 -3 -12 -28 -113 -55
-224 -28 -112 -50 -207 -50 -211 0 -7 206 -59 259 -65 9 -1 19 16 27 48 21 79
20 80 -42 94 -30 7 -58 19 -61 27 -3 7 5 54 18 104 18 72 25 89 38 86 9 -3 32
-8 52 -11 l36 -7 31 129 c18 70 66 267 107 436 41 170 75 312 75 317 0 5 -17
14 -37 20 -21 6 -43 13 -50 15 -8 3 -4 28 14 87 14 46 26 84 27 85 1 2 28 -4
60 -12 31 -8 61 -15 66 -15 8 0 40 94 40 117 0 9 -27 19 -207 73 -58 17 -63
17 -67 2z"/>
<path d="M20702 8910 c0 -14 2 -19 5 -12 2 6 2 18 0 25 -3 6 -5 1 -5 -13z"/>
<path d="M10285 8758 c-3 -7 -25 -67 -49 -133 l-43 -120 29 -13 c62 -27 68
-23 100 61 16 42 36 77 43 77 18 0 368 -129 379 -140 5 -5 -2 -39 -18 -82 -14
-40 -26 -78 -26 -83 0 -9 20 -18 78 -36 9 -3 29 38 63 126 27 72 49 133 49
137 0 3 -12 11 -27 16 -147 53 -243 89 -385 141 -91 33 -171 61 -177 61 -7 0
-14 -6 -16 -12z"/>
<path d="M1480 8555 c0 -8 7 -15 15 -15 8 0 15 7 15 15 0 8 -7 15 -15 15 -8 0
-15 -7 -15 -15z"/>
<path d="M11181 8488 c-93 -213 -131 -303 -131 -308 0 -6 161 -80 173 -80 2 0
21 40 42 89 l38 89 66 -28 c36 -16 212 -92 391 -169 178 -78 328 -140 333
-138 10 3 80 158 73 164 -2 3 -154 70 -338 150 -183 80 -385 167 -448 195 -63
28 -130 56 -148 64 l-33 14 -18 -42z"/>
<path d="M20590 8446 c0 -8 -3 -21 -6 -30 -4 -11 -1 -16 10 -16 18 0 23 45 6
55 -5 3 -10 0 -10 -9z"/>
<path d="M13277 8412 c-55 -36 -62 -45 -192 -267 -103 -176 -131 -233 -122
-241 7 -6 37 -25 69 -43 l56 -31 70 117 c38 65 88 151 111 191 23 39 45 72 49
72 4 0 28 -34 52 -75 24 -41 47 -75 50 -75 11 0 120 72 120 78 -1 15 -186 306
-195 308 -5 1 -36 -14 -68 -34z"/>
<path d="M20565 8380 c3 -5 8 -10 11 -10 2 0 4 5 4 10 0 6 -5 10 -11 10 -5 0
-7 -4 -4 -10z"/>
<path d="M20155 8260 c3 -5 11 -10 16 -10 6 0 7 5 4 10 -3 6 -11 10 -16 10 -6
0 -7 -4 -4 -10z"/>
<path d="M20727 8213 c-4 -3 -7 -13 -7 -22 1 -13 3 -13 11 2 11 19 8 33 -4 20z"/>
<path d="M7931 7978 c-12 -73 -33 -194 -46 -268 -38 -215 -42 -193 40 -207 39
-6 108 -18 155 -27 47 -8 86 -14 87 -13 1 1 8 36 16 79 l14 76 -31 6 c-17 3
-52 8 -78 12 -35 4 -48 11 -48 23 0 9 16 106 35 216 19 110 35 203 35 206 0 3
-21 9 -47 12 -27 3 -62 9 -79 12 l-30 7 -23 -134z"/>
<path d="M1108 8062 c-23 -4 -23 -18 -2 -26 20 -8 27 -3 22 16 -1 7 -11 12
-20 10z"/>
<path d="M20751 8044 c0 -11 3 -14 6 -6 3 7 2 16 -1 19 -3 4 -6 -2 -5 -13z"/>
<path d="M8506 7989 c-6 -25 -20 -99 -57 -293 l-22 -118 -41 6 c-23 4 -59 9
-81 12 l-40 6 -14 -72 c-7 -39 -10 -74 -7 -77 8 -9 298 -63 306 -58 4 3 10 19
13 37 20 109 30 162 61 332 20 104 36 196 36 206 0 13 -11 19 -42 23 -24 4
-57 9 -75 13 -28 5 -33 3 -37 -17z"/>
<path d="M20190 7959 c0 -5 5 -7 10 -4 6 3 10 8 10 11 0 2 -4 4 -10 4 -5 0
-10 -5 -10 -11z"/>
<path d="M1320 7953 c0 -5 4 -13 9 -18 5 -6 11 -23 14 -40 l4 -30 2 33 c0 18
-6 40 -14 48 -8 9 -15 12 -15 7z"/>
<path d="M20155 7930 c3 -5 10 -10 16 -10 5 0 9 5 9 10 0 6 -7 10 -16 10 -8 0
-12 -4 -9 -10z"/>
<path d="M11094 7904 l-61 -15 23 -97 c13 -53 36 -150 51 -215 l28 -118 32 6
c29 5 33 3 41 -27 46 -159 152 -539 152 -543 0 -2 -16 -7 -35 -11 -19 -3 -35
-11 -35 -18 0 -6 22 -87 49 -181 27 -93 52 -185 56 -202 l7 -33 111 0 112 0
155 155 154 155 -44 45 -44 45 -136 -135 c-175 -175 -175 -175 -218 -27 -17
59 -28 110 -24 113 4 3 28 12 55 19 42 11 47 15 41 34 -4 11 -10 35 -14 51 -7
29 -92 329 -170 604 -21 73 -41 136 -44 139 -3 3 -23 0 -43 -6 -21 -6 -40 -8
-44 -4 -4 4 -21 69 -39 145 -18 76 -38 137 -44 136 -6 0 -38 -7 -72 -15z"/>
<path d="M1480 7900 c0 -5 5 -10 11 -10 5 0 7 5 4 10 -3 6 -8 10 -11 10 -2 0
-4 -4 -4 -10z"/>
<path d="M12265 7613 c-49 -86 -91 -159 -93 -163 -3 -7 158 -104 162 -98 14
20 186 318 186 322 0 6 -151 96 -160 96 -3 0 -45 -71 -95 -157z"/>
<path d="M16730 7751 c-5 -11 -10 -39 -10 -62 0 -33 3 -39 13 -31 19 16 37 0
30 -26 -3 -15 -13 -22 -28 -22 -41 0 -33 -24 22 -63 58 -42 86 -42 53 0 -26
33 -25 40 5 47 19 5 25 13 25 34 -1 38 -33 106 -61 126 -30 21 -36 20 -49 -3z
m54 -43 c9 -12 14 -23 12 -25 -8 -8 -56 21 -56 34 0 21 27 15 44 -9z m21 -78
c3 -5 1 -10 -4 -10 -6 0 -11 5 -11 10 0 6 2 10 4 10 3 0 8 -4 11 -10z"/>
<path d="M20735 7630 c-3 -5 1 -10 9 -10 9 0 16 5 16 10 0 6 -4 10 -9 10 -6 0
-13 -4 -16 -10z"/>
<path d="M20770 7599 c0 -5 5 -7 10 -4 6 3 10 8 10 11 0 2 -4 4 -10 4 -5 0
-10 -5 -10 -11z"/>
<path d="M16694 7498 c-3 -5 0 -24 6 -43 10 -29 9 -38 -5 -51 -21 -21 -17 -99
5 -99 8 1 34 -10 57 -23 48 -27 70 -13 29 19 -34 27 -33 46 4 54 44 10 37 25
-12 26 l-43 1 34 8 c39 9 51 24 51 62 0 40 -24 58 -76 56 -25 -1 -47 -5 -50
-10z m78 -25 c24 -22 24 -53 -2 -53 -16 0 -50 43 -50 65 0 11 34 4 52 -12z
m-49 -113 c3 -11 1 -20 -4 -20 -5 0 -9 9 -9 20 0 11 2 20 4 20 2 0 6 -9 9 -20z"/>
<path d="M10946 7479 c-44 -24 -41 -30 31 -57 56 -21 61 -13 10 18 l-31 19 27
10 c27 11 37 31 15 31 -7 -1 -30 -10 -52 -21z"/>
<path d="M930 7480 c0 -5 5 -10 10 -10 6 0 10 5 10 10 0 6 -4 10 -10 10 -5 0
-10 -4 -10 -10z"/>
<path d="M936 7413 c-4 -9 -2 -21 4 -27 7 -7 10 -2 10 17 0 31 -5 34 -14 10z"/>
<path d="M1431 7394 c0 -11 3 -14 6 -6 3 7 2 16 -1 19 -3 4 -6 -2 -5 -13z"/>
<path d="M12551 7160 c-77 -132 -141 -243 -141 -247 0 -5 86 -59 192 -121
l192 -114 183 88 c101 48 186 91 189 95 4 7 -39 104 -52 118 -3 3 -76 -30
-164 -73 l-159 -79 -98 58 c-54 31 -100 59 -102 61 -2 2 47 88 108 192 61 104
111 191 111 194 0 8 -97 68 -109 68 -5 0 -72 -108 -150 -240z"/>
<path d="M10940 7384 c0 -5 9 -15 21 -22 20 -13 20 -14 2 -34 -18 -21 -18 -21
12 -14 27 6 28 5 13 -7 -39 -30 -14 -65 52 -74 55 -8 51 10 -7 27 l-48 14 43
4 c50 4 53 13 10 30 l-33 13 25 19 25 19 -30 11 c-45 17 -85 24 -85 14z"/>
<path d="M820 7366 c0 -18 33 -76 44 -76 23 0 16 48 -10 65 -23 15 -34 19 -34
11z"/>
<path d="M895 7360 c3 -5 13 -10 21 -10 8 0 14 5 14 10 0 6 -9 10 -21 10 -11
0 -17 -4 -14 -10z"/>
<path d="M12010 7204 c-83 -124 -101 -158 -90 -164 8 -5 44 -29 80 -54 35 -25
65 -44 65 -43 1 1 49 72 108 158 l106 157 -77 51 c-43 28 -80 51 -83 51 -2 -1
-51 -71 -109 -156z"/>
<path d="M1341 7304 c0 -11 3 -14 6 -6 3 7 2 16 -1 19 -3 4 -6 -2 -5 -13z"/>
<path d="M1355 7260 c-3 -5 1 -10 9 -10 9 0 16 5 16 10 0 6 -4 10 -9 10 -6 0
-13 -4 -16 -10z"/>
<path d="M8886 7138 c3 -57 7 -109 9 -115 3 -7 -2 -13 -10 -13 -7 0 -17 -5
-21 -12 -4 -7 -3 -8 4 -4 13 8 16 -29 12 -118 -1 -33 1 -46 9 -42 7 5 10 -7 7
-36 -5 -55 -6 -57 -16 -33 -6 14 -8 2 -8 -40 1 -104 20 -112 110 -48 26 18 52
33 57 33 5 0 14 7 21 15 7 9 28 22 46 31 18 9 32 21 31 27 -1 7 5 11 14 11 9
-1 24 12 35 27 11 17 25 27 33 24 7 -3 28 8 45 25 63 62 102 90 124 90 24 0
30 15 10 23 -7 3 2 6 20 6 17 1 32 -3 32 -9 0 -5 -6 -10 -14 -10 -8 0 -17 -4
-20 -9 -5 -7 26 -125 65 -248 l10 -31 77 20 c42 12 78 22 80 24 2 1 -10 51
-27 111 -17 60 -31 111 -31 114 0 4 45 -3 100 -14 55 -11 103 -18 105 -15 10
10 45 211 38 218 -4 4 -107 27 -228 50 -121 24 -225 45 -232 47 -7 3 -17 -30
-29 -96 -10 -56 -21 -101 -26 -101 -4 0 -30 15 -56 33 -44 31 -86 56 -174 106
-24 13 -38 16 -38 9 0 -6 -13 0 -28 15 -32 31 -44 34 -35 11 5 -13 2 -15 -18
-9 -13 4 -34 13 -46 21 -12 8 -27 14 -32 14 -5 0 -7 -41 -5 -102z m63 38 c-1
-16 -2 -17 -6 -3 -2 9 -11 17 -19 17 -8 0 -13 4 -9 10 10 16 35 -1 34 -24z
m24 -201 c-3 -16 -9 -34 -14 -39 -5 -6 -9 -19 -10 -30 0 -21 0 -21 -8 -1 -5
11 -5 25 0 31 4 5 9 39 10 75 1 35 4 69 8 74 8 14 19 -73 14 -110z m2 -124 c3
-5 1 -12 -5 -16 -5 -3 -10 1 -10 9 0 18 6 21 15 7z"/>
<path d="M10980 7226 c0 -8 9 -18 21 -21 16 -5 18 -9 8 -21 -15 -19 -4 -30 15
-15 11 10 21 9 45 -4 34 -17 40 -11 14 17 -9 11 -11 18 -5 18 7 0 12 5 12 11
0 7 -11 9 -27 6 -15 -3 -40 1 -55 9 -24 13 -28 13 -28 0z"/>
<path d="M781 7214 c0 -11 3 -14 6 -6 3 7 2 16 -1 19 -3 4 -6 -2 -5 -13z"/>
<path d="M1071 7218 c0 -9 -8 -21 -17 -26 -10 -6 -12 -12 -6 -16 14 -8 35 20
29 41 -4 16 -5 16 -6 1z"/>
<path d="M1391 7214 c0 -11 3 -14 6 -6 3 7 2 16 -1 19 -3 4 -6 -2 -5 -13z"/>
<path d="M2562 7200 c0 -14 2 -19 5 -12 2 6 2 18 0 25 -3 6 -5 1 -5 -13z"/>
<path d="M16670 7187 c0 -7 15 -21 33 -29 l32 -16 -33 -8 c-45 -9 -50 -24 -16
-51 28 -22 27 -25 -6 -27 -27 -2 -17 -76 14 -103 33 -28 38 -28 66 -5 16 13
22 30 24 70 2 32 -1 52 -8 52 -6 0 -24 9 -40 19 l-29 19 39 8 c59 11 59 25 -3
56 -63 32 -73 34 -73 15z m58 -163 c22 -15 30 -48 13 -59 -17 -10 -68 55 -54
69 9 9 16 8 41 -10z"/>
<path d="M1662 7135 c0 -16 2 -22 5 -12 2 9 2 23 0 30 -3 6 -5 -1 -5 -18z"/>
<path d="M11010 7141 c0 -6 7 -11 15 -11 8 0 19 -9 25 -20 9 -17 8 -20 -10
-20 -34 0 -22 -17 18 -24 20 -4 45 -9 55 -12 11 -4 17 0 17 10 0 9 -8 16 -19
16 -28 0 -34 27 -8 34 32 8 10 23 -45 31 -33 5 -48 4 -48 -4z"/>
<path d="M13350 7089 c-63 -28 -116 -51 -117 -53 -9 -8 48 -121 59 -118 22 5
232 93 239 100 10 10 -41 122 -55 121 -6 0 -63 -23 -126 -50z"/>
<path d="M21000 7055 c0 -14 4 -25 9 -25 4 0 6 11 3 25 -2 14 -6 25 -8 25 -2
0 -4 -11 -4 -25z"/>
<path d="M21075 7060 c3 -5 8 -10 11 -10 2 0 4 5 4 10 0 6 -5 10 -11 10 -5 0
-7 -4 -4 -10z"/>
<path d="M960 7035 c0 -8 5 -15 10 -15 6 0 10 7 10 15 0 8 -4 15 -10 15 -5 0
-10 -7 -10 -15z"/>
<path d="M8815 7040 c-3 -5 -1 -10 4 -10 6 0 11 5 11 10 0 6 -2 10 -4 10 -3 0
-8 -4 -11 -10z"/>
<path d="M11040 7034 c0 -3 10 -14 23 -25 20 -18 21 -20 5 -29 -17 -10 -17
-13 -2 -48 9 -20 16 -45 16 -54 0 -10 3 -20 9 -23 5 -4 9 -16 9 -28 0 -12 9
-35 20 -52 14 -22 16 -31 7 -37 -17 -11 10 -28 45 -28 15 0 34 -8 44 -17 17
-17 16 -18 -29 -21 -44 -3 -59 -22 -17 -22 26 0 31 -24 8 -39 -19 -12 -19 -12
0 -44 11 -18 18 -37 15 -44 -2 -6 3 -23 13 -37 12 -20 14 -29 5 -40 -14 -16 4
-26 49 -26 18 0 34 -8 44 -22 13 -18 16 -19 21 -6 4 9 0 29 -8 45 -8 15 -17
40 -21 56 -5 23 -12 27 -40 27 -25 0 -35 6 -44 25 -6 14 -8 25 -3 25 5 0 11
-7 15 -15 3 -8 10 -15 16 -15 6 0 8 5 5 10 -11 17 7 11 21 -7 12 -17 13 -16
14 4 0 12 -4 24 -9 27 -5 3 -12 25 -15 48 -7 52 -9 62 -24 114 -19 66 -81 109
-82 56 -1 -15 -2 -15 -15 2 -8 11 -15 29 -15 41 0 18 5 20 40 17 58 -6 49 14
-10 22 -42 6 -50 10 -50 27 0 18 5 20 37 17 22 -2 38 2 40 10 3 8 -6 12 -25
12 -37 0 -51 34 -21 50 29 16 23 25 -26 38 -51 13 -65 15 -65 6z m60 -74 c0
-5 -4 -10 -10 -10 -5 0 -10 5 -10 10 0 6 5 10 10 10 6 0 10 -4 10 -10z m97
-210 c2 -11 -2 -20 -7 -20 -6 0 -10 12 -10 27 0 29 12 24 17 -7z m43 -120 c0
-5 -2 -10 -4 -10 -3 0 -8 5 -11 10 -3 6 -1 10 4 10 6 0 11 -4 11 -10z m-15
-30 c3 -5 -1 -10 -10 -10 -9 0 -13 5 -10 10 3 6 8 10 10 10 2 0 7 -4 10 -10z
m41 -119 c11 9 14 7 14 -16 0 -21 -4 -26 -16 -21 -9 3 -19 6 -23 6 -3 0 -8 12
-9 28 -1 23 0 25 9 9 8 -14 14 -16 25 -6z"/>
<path d="M21047 7020 c3 -11 9 -20 14 -20 5 0 9 9 9 20 0 11 -6 20 -14 20 -9
0 -12 -7 -9 -20z"/>
<path d="M8828 7003 c7 -3 16 -2 19 1 4 3 -2 6 -13 5 -11 0 -14 -3 -6 -6z"/>
<path d="M788 6971 c-22 -21 -23 -41 -4 -41 8 0 16 -5 18 -11 2 -6 3 8 3 30 0
23 0 41 0 40 0 0 -8 -8 -17 -18z"/>
<path d="M21081 6974 c0 -11 3 -14 6 -6 3 7 2 16 -1 19 -3 4 -6 -2 -5 -13z"/>
<path d="M821 6944 c0 -11 3 -14 6 -6 3 7 2 16 -1 19 -3 4 -6 -2 -5 -13z"/>
<path d="M16647 6943 c-14 -13 -7 -169 8 -189 20 -26 19 -33 -5 -27 -31 8 -25
-22 8 -37 l27 -13 -32 -13 c-18 -8 -33 -18 -33 -24 0 -11 99 -70 118 -70 26 0
9 26 -29 44 -46 21 -44 27 8 35 43 7 52 23 21 39 -19 8 -20 11 -5 11 30 1 40
48 20 91 -16 31 -16 36 -3 36 33 -2 20 21 -28 49 -38 22 -52 36 -52 53 0 22
-10 28 -23 15z m65 -115 c-5 -5 -7 -30 -5 -56 l4 -47 -20 24 c-21 24 -25 48
-15 88 5 19 9 21 26 12 13 -7 17 -14 10 -21z"/>
<path d="M13757 6869 l-58 -30 82 -157 c45 -86 83 -158 84 -160 2 -2 30 10 63
27 l60 30 -75 148 c-42 81 -81 153 -87 160 -8 9 -25 4 -69 -18z"/>
<path d="M1680 6800 c0 -5 5 -10 10 -10 6 0 10 5 10 10 0 6 -4 10 -10 10 -5 0
-10 -4 -10 -10z"/>
<path d="M9588 6666 c-59 -16 -77 -24 -74 -36 3 -8 22 -79 43 -157 20 -79 42
-143 48 -143 14 0 266 68 271 73 7 7 -27 137 -35 137 -4 0 -31 -7 -60 -16 -30
-8 -57 -12 -61 -7 -4 4 -15 40 -25 78 -10 39 -21 75 -24 81 -4 7 -31 4 -83
-10z"/>
<path d="M11930 6404 c-184 -158 -349 -298 -367 -313 l-32 -26 26 -105 c14
-58 27 -106 28 -108 1 -1 35 5 75 14 l72 17 -6 33 c-19 108 -46 74 255 329
149 127 276 234 283 239 9 6 69 -33 197 -127 l184 -136 17 22 c10 12 31 40 47
63 l30 41 -234 171 c-128 95 -235 172 -237 172 -2 0 -154 -129 -338 -286z"/>
<path d="M921 6614 c0 -11 3 -14 6 -6 3 7 2 16 -1 19 -3 4 -6 -2 -5 -13z"/>
<path d="M961 6614 c0 -11 3 -14 6 -6 3 7 2 16 -1 19 -3 4 -6 -2 -5 -13z"/>
<path d="M13184 6557 l-81 -42 112 -227 c62 -125 115 -232 117 -239 3 -8 32 1
93 30 49 23 91 44 93 45 6 7 -233 476 -243 475 -5 0 -47 -19 -91 -42z"/>
<path d="M16622 6588 c4 -14 120 -79 127 -73 13 13 -85 85 -115 85 -8 0 -14
-6 -12 -12z"/>
<path d="M16615 6539 c-4 -5 7 -15 24 -22 39 -14 39 -23 1 -30 -45 -9 -37 -32
24 -66 60 -35 66 -36 66 -18 0 6 -17 22 -38 34 l-37 21 27 11 c15 6 35 8 43 5
9 -4 15 0 15 10 0 9 -21 27 -50 41 -55 28 -66 30 -75 14z"/>
<path d="M8500 6465 c0 -14 -7 -28 -16 -32 -9 -3 -90 -2 -180 3 l-164 9 0 -32
c0 -17 -4 -34 -9 -37 -5 -3 -82 -1 -171 5 -89 5 -164 9 -165 7 -1 -2 -6 -48
-9 -104 l-7 -100 173 -12 c187 -12 188 -11 188 41 0 23 3 27 23 23 12 -3 88
-8 169 -11 l147 -7 3 34 c2 22 8 33 18 32 9 -1 88 -4 177 -8 l161 -7 7 96 c4
53 4 99 0 103 -7 8 -159 19 -272 21 -72 1 -73 1 -73 -24z"/>
<path d="M10790 6444 c-63 -17 -270 -73 -460 -124 -494 -132 -482 -128 -476
-148 3 -9 17 -59 30 -110 13 -52 26 -95 28 -97 2 -1 167 42 368 96 201 55 435
118 520 140 85 22 159 44 163 49 8 7 -39 209 -52 221 -3 3 -58 -9 -121 -27z"/>
<path d="M16606 6421 c-7 -10 10 -25 39 -35 16 -6 17 -9 5 -16 -8 -6 -23 -10
-32 -10 -13 0 -17 -8 -16 -37 1 -21 -2 -48 -6 -60 -6 -18 1 -26 49 -53 30 -17
55 -33 55 -36 0 -2 -14 -4 -30 -4 -23 0 -33 6 -42 25 -6 14 -17 25 -25 25 -16
0 -16 -5 -2 -32 9 -17 8 -23 -6 -30 -15 -9 -15 -11 2 -30 24 -27 102 -72 110
-64 4 3 -6 19 -20 34 -32 33 -34 42 -8 42 11 0 23 4 26 10 10 16 13 150 3 150
-5 0 -20 7 -34 17 -29 19 -17 33 29 33 44 0 32 24 -28 53 -62 30 -62 30 -69
18z m49 -127 c24 -15 38 -73 15 -59 -5 3 -10 16 -10 28 0 16 -3 18 -12 9 -19
-19 -28 -14 -28 13 0 29 3 30 35 9z"/>
<path d="M8978 6294 c-3 -5 -2 -31 3 -59 4 -27 8 -55 8 -60 1 -6 17 -17 36
-24 26 -9 35 -18 35 -34 -1 -20 -2 -21 -14 -5 -7 10 -16 15 -20 11 -3 -4 -13
2 -21 13 -13 17 -14 5 -10 -115 3 -98 8 -140 20 -157 19 -30 33 -30 44 -1 9
21 10 21 21 -10 7 -18 16 -33 21 -33 12 0 11 19 -5 55 -11 25 -10 32 2 41 11
8 5 14 -30 29 -23 11 -46 24 -50 30 -12 17 8 26 36 15 43 -16 53 -11 24 11
-30 22 -36 39 -15 39 28 0 36 21 21 55 -9 21 -10 35 -3 37 6 2 6 14 -2 36 -8
25 -8 36 1 47 10 11 5 17 -27 30 -21 9 -45 25 -54 37 -9 11 -19 17 -21 12z
m78 -100 c-1 -26 -16 -34 -16 -8 0 10 -6 14 -15 10 -11 -4 -15 1 -15 19 0 22
2 24 24 14 16 -8 23 -19 22 -35z m-1 -132 c-3 -3 -11 0 -18 7 -9 10 -8 11 6 5
10 -3 15 -9 12 -12z m-30 -22 c3 -5 1 -10 -4 -10 -6 0 -11 5 -11 10 0 6 2 10
4 10 3 0 8 -4 11 -10z m21 -126 c-3 -9 -6 -21 -6 -27 0 -7 -4 -7 -9 2 -10 16
-4 41 11 41 6 0 7 -7 4 -16z"/>
<path d="M11042 6161 c-51 -16 -95 -31 -98 -34 -4 -4 221 -786 229 -793 1 -1
52 13 112 31 89 26 109 36 107 50 -2 9 -52 185 -113 390 -60 206 -109 376
-109 380 0 10 -36 4 -128 -24z"/>
<path d="M14153 6142 c-29 -14 -53 -30 -53 -36 0 -10 147 -295 159 -309 8 -8
124 51 119 62 -22 50 -162 311 -166 310 -4 0 -31 -12 -59 -27z"/>
<path d="M13648 5962 l-166 -97 30 -55 c17 -30 34 -59 38 -63 7 -7 308 158
333 183 8 7 -46 114 -62 124 -3 3 -81 -39 -173 -92z"/>
<path d="M10471 6019 c-52 -16 -96 -31 -99 -34 -5 -5 218 -776 228 -788 4 -5
57 6 117 24 l110 32 -53 181 c-172 584 -180 611 -194 612 -8 1 -57 -11 -109
-27z"/>
<path d="M968 6023 c6 -2 18 -2 25 0 6 3 1 5 -13 5 -14 0 -19 -2 -12 -5z"/>
<path d="M9887 5847 c-59 -18 -106 -36 -104 -42 2 -5 55 -185 117 -398 l114
-389 29 6 c77 15 198 59 194 69 -2 7 -55 186 -117 400 -63 213 -116 387 -119
386 -3 0 -54 -15 -114 -32z"/>
<path d="M9005 5753 c4 -10 9 -61 11 -113 4 -69 9 -99 21 -113 15 -16 15 -19
3 -27 -11 -7 -15 -25 -13 -61 1 -57 20 -89 29 -52 6 21 8 22 40 8 22 -9 36
-10 40 -4 7 12 9 11 -43 33 -47 21 -59 39 -37 57 12 10 19 8 39 -11 46 -43 43
-9 -3 36 -28 27 -39 43 -27 39 54 -19 54 -20 50 26 -2 25 -10 48 -19 54 -23
17 -20 35 5 35 18 0 20 4 14 28 -8 34 -32 72 -46 72 -5 0 -14 -10 -18 -22 -9
-23 -9 -23 -16 5 -4 15 -14 27 -22 27 -10 0 -13 -6 -8 -17z m85 -59 c0 -8 -6
-14 -14 -14 -9 0 -12 7 -9 20 6 22 23 18 23 -6z m-45 -34 c3 -5 1 -10 -4 -10
-6 0 -11 5 -11 10 0 6 2 10 4 10 3 0 8 -4 11 -10z m26 -50 c10 -6 19 -21 19
-33 l-1 -22 -12 23 c-10 17 -15 20 -25 10 -9 -9 -12 -7 -12 10 0 25 3 26 31
12z"/>
<path d="M14378 5729 c-32 -16 -58 -31 -58 -34 0 -2 33 -71 74 -153 40 -82 75
-154 77 -161 4 -10 21 -5 66 18 l62 31 -75 157 c-42 87 -78 161 -82 165 -4 3
-33 -7 -64 -23z"/>
<path d="M13348 5675 l-67 -35 96 -187 c53 -104 99 -192 104 -197 6 -6 127 50
147 69 5 5 -194 379 -204 381 -5 2 -39 -13 -76 -31z"/>
<path d="M13905 5553 c-93 -47 -171 -86 -173 -88 -2 -1 12 -32 29 -68 l32 -65
171 85 c94 47 173 87 175 89 5 4 -50 123 -59 129 -3 1 -81 -35 -175 -82z"/>
<path d="M7198 5435 c-9 -9 17 -125 28 -129 13 -5 111 121 102 130 -3 2 -23
-12 -46 -32 l-42 -36 -6 31 c-6 27 -25 46 -36 36z"/>
<path d="M7459 5410 c-13 -36 -46 -41 -51 -8 -6 41 -32 30 -65 -27 -31 -55
-28 -82 6 -51 22 20 51 21 51 1 0 -8 7 -15 16 -15 11 0 14 5 10 16 -3 9 -3 21
1 27 4 7 9 2 13 -13 9 -40 52 -39 83 2 26 35 43 88 29 88 -5 0 -22 -20 -38
-45 -15 -25 -32 -45 -36 -45 -11 0 -10 5 7 46 8 20 12 40 9 45 -10 17 -25 9
-35 -21z"/>
<path d="M7671 5378 c-32 -69 -30 -94 3 -55 11 13 29 27 39 31 15 5 18 1 17
-17 -4 -40 0 -40 29 0 33 45 45 78 35 94 -4 7 -17 0 -35 -20 -33 -37 -48 -40
-42 -7 3 13 0 27 -6 31 -7 4 -22 -17 -40 -57z"/>
<path d="M7945 5406 c-12 -28 -18 -33 -40 -29 -16 4 -25 12 -25 24 0 22 -32
39 -38 21 -2 -6 -16 -30 -32 -54 -31 -46 -26 -75 8 -45 24 22 39 21 51 -1 8
-15 22 -17 102 -15 50 1 98 4 105 7 23 9 16 26 -11 26 -30 0 -30 1 -5 49 10
21 16 41 13 45 -10 10 -33 7 -33 -4 0 -5 -8 -28 -17 -50 -15 -33 -23 -40 -45
-40 -33 0 -33 0 -8 49 18 37 18 51 -2 51 -5 0 -15 -15 -23 -34z m-25 -55 c0
-12 -20 -25 -27 -18 -7 7 6 27 18 27 5 0 9 -4 9 -9z"/>
<path d="M500 5425 c0 -2 9 -9 20 -15 16 -9 20 -8 20 5 0 8 -9 15 -20 15 -11
0 -20 -2 -20 -5z"/>
<path d="M1158 5423 c7 -3 16 -2 19 1 4 3 -2 6 -13 5 -11 0 -14 -3 -6 -6z"/>
<path d="M7570 5399 c0 -21 -9 -40 -25 -55 -14 -13 -25 -28 -25 -34 0 -17 22
-12 46 11 l22 21 12 -22 c8 -15 15 -19 22 -12 7 7 6 17 -2 33 -11 20 -9 26 19
51 17 15 31 30 31 33 0 11 -35 4 -52 -12 -17 -15 -18 -15 -18 0 0 10 -7 17
-15 17 -10 0 -15 -10 -15 -31z"/>
<path d="M7311 5194 c-28 -60 -33 -92 -12 -80 4 3 36 8 70 10 34 3 67 8 72 12
5 3 16 0 24 -6 11 -9 20 -8 41 9 24 19 51 20 40 2 -3 -4 -1 -12 3 -19 6 -9 21
-8 66 7 55 18 60 18 71 3 19 -26 62 -5 88 43 11 22 22 42 24 44 1 2 4 2 7 -1
3 -2 -4 -24 -16 -47 -25 -53 -11 -80 17 -32 23 39 42 39 55 1 11 -30 23 -38
33 -21 3 4 24 11 46 15 44 7 46 26 4 26 -14 0 -22 4 -19 10 3 6 15 10 26 10
24 0 25 17 2 23 -13 3 -9 7 15 17 18 7 31 15 28 17 -10 11 -61 12 -72 2 -8 -7
-15 -6 -19 1 -7 12 -125 11 -125 -1 0 -11 -61 -91 -66 -86 -3 3 2 22 10 42 9
20 14 40 11 44 -15 25 -155 -3 -155 -30 0 -19 -19 -8 -22 14 -5 35 -25 26 -58
-26 -21 -34 -35 -47 -46 -43 -9 3 -25 6 -35 6 -11 0 -17 5 -14 10 3 6 15 10
26 10 10 0 19 5 19 10 0 6 -4 10 -10 10 -21 0 -9 18 15 24 33 8 24 23 -15 24
-27 1 -33 -5 -55 -49 -14 -27 -32 -49 -40 -49 -19 0 -19 3 5 49 16 33 17 41 6
50 -11 9 -20 -1 -45 -55z m555 21 c-21 -16 -32 -13 -21 4 3 6 14 11 23 11 15
-1 15 -2 -2 -15z m-176 -11 c0 -11 -5 -14 -16 -10 -9 3 -23 6 -32 6 -15 0 -15
2 -2 10 23 15 50 12 50 -6z m210 -18 c0 -3 -4 -8 -10 -11 -5 -3 -10 -1 -10 4
0 6 5 11 10 11 6 0 10 -2 10 -4z m-280 -26 c-20 -13 -50 -13 -50 0 0 6 15 10
33 10 24 0 28 -3 17 -10z"/>
<path d="M7208 5243 c-20 -5 -23 -19 -7 -28 7 -5 2 -16 -12 -31 -12 -13 -20
-24 -16 -24 4 0 2 -11 -3 -24 -14 -38 -1 -38 39 2 20 20 51 45 69 54 47 25 40
52 -13 55 -22 0 -48 -1 -57 -4z m52 -23 c0 -5 -5 -10 -11 -10 -5 0 -7 5 -4 10
3 6 8 10 11 10 2 0 4 -4 4 -10z"/>
<path d="M620 5190 c0 -5 5 -10 10 -10 6 0 10 5 10 10 0 6 -4 10 -10 10 -5 0
-10 -4 -10 -10z"/>
<path d="M9590 5095 c-74 -22 -141 -43 -149 -46 -15 -5 -13 -13 95 -383 35
-120 64 -220 64 -221 0 -3 304 85 306 88 2 3 -174 599 -178 601 -2 1 -64 -16
-138 -39z"/>
<path d="M11125 5084 c-88 -24 -185 -51 -215 -59 -77 -21 -528 -143 -616 -166
l-41 -11 30 -111 c17 -62 31 -113 32 -114 1 -3 157 38 590 156 99 27 243 65
320 86 77 20 143 40 146 43 7 7 -5 58 -37 169 -11 37 -20 53 -32 52 -9 0 -89
-20 -177 -45z"/>
<path d="M7458 5050 c-10 -6 -14 -18 -11 -30 4 -15 0 -20 -15 -20 -14 0 -22 8
-24 22 -6 41 -32 30 -65 -27 -31 -55 -28 -82 6 -51 24 22 48 20 54 -4 5 -19
37 -29 37 -12 0 11 39 52 49 52 5 0 11 -13 15 -30 3 -18 12 -30 21 -30 23 0
86 28 109 48 18 16 18 16 7 -7 -17 -31 -1 -47 29 -31 11 6 34 9 50 5 26 -6 30
-3 41 29 7 20 16 36 19 36 10 0 31 -50 25 -60 -8 -13 30 -22 62 -14 77 19 108
59 61 82 -22 10 -22 11 10 17 17 4 32 14 32 21 0 17 -19 18 -56 4 -19 -8 -30
-8 -38 0 -17 17 -25 12 -40 -22 -14 -34 -15 -33 -31 18 -3 11 -9 13 -22 6 -9
-5 -34 -7 -56 -4 -30 4 -42 1 -49 -12 -8 -14 -11 -15 -24 -1 -9 8 -32 15 -53
15 -21 0 -58 2 -82 5 -24 3 -51 1 -61 -5z m62 -24 c0 -2 -7 -6 -15 -10 -8 -3
-15 -1 -15 4 0 6 7 10 15 10 8 0 15 -2 15 -4z m106 -7 c7 -12 -32 -57 -41 -47
-8 8 13 58 24 58 5 0 13 -5 17 -11z m119 -19 c-9 -16 -20 -30 -24 -30 -5 0
-16 -3 -25 -6 -9 -3 -16 -2 -16 4 0 5 12 13 27 17 25 6 26 8 11 19 -21 16 -13
26 19 26 23 0 23 -1 8 -30z m-197 -15 c-8 -19 -14 -22 -20 -13 -5 8 -1 18 9
26 23 17 24 16 11 -13z m352 -15 c0 -7 -52 -21 -58 -16 -1 2 0 10 3 18 6 15
55 13 55 -2z"/>
<path d="M7214 5016 c-39 -39 -42 -56 -15 -80 25 -23 70 -14 101 19 20 21 21
25 7 30 -8 4 -31 2 -51 -3 -28 -8 -36 -7 -36 3 0 17 64 47 84 39 11 -4 16 -1
16 10 0 12 -10 16 -36 16 -28 0 -44 -8 -70 -34z"/>
<path d="M12716 4921 c-38 -59 -51 -90 -42 -99 5 -4 20 8 35 26 15 17 30 32
33 32 3 0 8 -13 11 -30 6 -27 10 -30 39 -26 18 3 41 7 50 11 9 4 26 2 37 -5
19 -10 23 -7 38 31 15 38 17 40 30 23 7 -10 13 -26 13 -35 0 -22 22 -37 28
-20 3 9 7 9 18 0 8 -7 16 -10 17 -8 1 2 11 22 21 44 16 35 19 37 28 20 6 -10
11 -28 12 -39 1 -15 8 -21 27 -23 14 -1 30 2 36 5 15 10 63 109 56 116 -17 16
-33 1 -54 -49 -28 -68 -37 -66 -10 3 11 27 17 53 14 56 -13 13 -23 5 -37 -26
-14 -34 -15 -33 -31 18 -8 24 -27 12 -53 -32 -13 -21 -21 -30 -17 -19 19 52
-1 77 -24 30 l-14 -28 -13 32 c-8 20 -18 30 -25 25 -6 -4 -39 -7 -73 -6 -33 0
-69 -4 -79 -10 -14 -7 -22 -5 -32 8 -11 16 -15 14 -39 -25z m194 4 c0 -20 -27
-54 -46 -58 -29 -5 -32 8 -4 16 21 5 28 27 9 27 -5 0 -7 5 -4 10 6 10 45 14
45 5z m-90 -12 c-1 -5 -9 -23 -19 -42 l-18 -34 -5 32 c-3 22 0 35 11 41 20 12
31 12 31 3z"/>
<path d="M13234 4952 c-15 -9 -54 -87 -54 -106 0 -33 20 -24 38 16 19 43 19
43 30 18 6 -14 13 -33 16 -42 7 -24 23 -23 31 3 l7 21 15 -21 c17 -25 54 -27
88 -5 22 15 25 15 25 1 0 -38 22 -23 50 33 22 43 36 60 50 60 11 0 20 7 20 15
0 17 -23 18 -123 6 -38 -5 -77 -17 -86 -25 -17 -16 -18 -15 -14 9 7 36 -16 32
-30 -5 -12 -31 -27 -40 -27 -17 0 21 -24 47 -36 39z m226 -36 c0 -19 -14 -33
-29 -29 -10 3 -35 0 -55 -5 -41 -12 -47 -1 -14 22 20 14 98 23 98 12z"/>
<path d="M13603 4945 c-60 -26 -79 -90 -34 -114 9 -5 38 -9 64 -8 44 2 47 4
61 41 18 44 25 43 35 -6 4 -18 13 -33 20 -33 14 0 63 114 54 128 -9 15 -23 6
-37 -25 -14 -33 -15 -32 -30 15 -8 26 -24 21 -46 -15 -20 -34 -20 -34 -36 20
-4 15 -11 15 -51 -3z m37 -43 c0 -23 -19 -42 -42 -42 -22 0 -23 18 -1 42 21
23 43 23 43 0z"/>
<path d="M13921 4898 c-16 -34 -28 -65 -25 -69 8 -13 115 -1 133 15 24 21 38
20 46 -4 11 -35 43 -24 63 23 19 42 19 42 30 17 6 -14 13 -33 16 -44 5 -14 9
-16 20 -7 9 8 15 8 18 2 4 -14 91 12 96 29 3 9 -3 11 -22 8 -14 -3 -26 -1 -26
3 0 5 9 9 20 9 22 0 28 25 8 33 -7 3 2 8 19 12 41 9 33 25 -12 25 -30 0 -38
-5 -55 -37 -14 -25 -18 -29 -14 -13 10 37 10 45 -1 49 -5 2 -16 -9 -24 -24
l-14 -28 -13 31 c-15 36 -35 35 -52 -4 -15 -31 -38 -31 -46 1 -9 37 -27 31
-59 -20 -23 -36 -34 -45 -57 -45 l-29 0 19 42 c18 41 18 58 0 58 -5 0 -22 -28
-39 -62z"/>
<path d="M4297 4759 c-93 -22 -181 -98 -219 -190 -20 -47 -22 -49 -59 -49
l-39 0 0 -75 0 -75 39 0 c38 0 40 -2 64 -54 91 -198 349 -248 508 -99 28 26
56 66 70 98 24 54 25 55 67 55 l42 0 0 75 0 75 -40 0 c-39 0 -42 2 -61 47 -41
96 -110 158 -209 187 -58 17 -104 19 -163 5z m161 -105 c43 -18 88 -58 108
-96 8 -15 14 -29 14 -33 0 -3 -95 -5 -211 -5 l-210 0 23 41 c23 41 85 92 123
102 42 10 117 6 153 -9z m-361 -181 l10 -28 6 28 c7 26 37 39 37 15 -1 -22
-35 -83 -45 -82 -14 2 -47 73 -40 84 11 17 23 11 32 -17z m116 -5 l16 -33 0
33 c1 43 25 38 29 -6 4 -41 20 -41 24 0 2 25 8 32 28 33 14 2 30 -2 37 -7 7
-5 14 -5 18 2 13 21 26 10 21 -17 -3 -16 -2 -35 4 -43 7 -11 10 -4 10 28 0 43
18 58 27 22 7 -26 19 -26 26 1 8 30 27 14 27 -24 l1 -32 17 34 c23 46 35 48
54 9 l17 -33 0 33 c1 43 25 38 29 -6 5 -46 32 -43 32 4 0 45 24 42 28 -4 2
-21 9 -32 18 -32 9 0 14 -6 12 -12 -6 -17 -126 -22 -144 -7 -8 7 -21 8 -31 3
-33 -14 -55 -12 -60 7 -7 25 -19 24 -26 0 -6 -23 -52 -25 -66 -3 -7 11 -9 11
-14 -2 -4 -9 -13 -16 -22 -16 -18 0 -19 5 -4 31 6 12 7 28 3 37 -6 13 -9 9
-13 -17 -7 -42 -33 -61 -60 -44 -14 9 -21 9 -23 1 -3 -7 -11 -6 -26 3 -20 12
-24 12 -32 -1 -6 -10 -12 -12 -20 -4 -7 7 -6 20 4 45 25 59 36 63 59 17z m367
-106 c0 -16 -50 -75 -83 -97 -80 -55 -176 -53 -256 6 -34 24 -71 73 -71 94 0
3 92 5 205 5 113 0 205 -4 205 -8z"/>
<path d="M767 4742 c-15 -16 -15 -18 1 -19 11 -1 18 6 18 18 0 23 1 23 -19 1z"/>
<path d="M727 4693 c-12 -12 -7 -22 8 -17 8 4 15 10 15 15 0 11 -14 12 -23 2z"/>
<path d="M836 4573 c4 -16 13 -35 22 -43 13 -13 14 -11 8 19 -3 18 -6 37 -6
42 0 5 -7 9 -15 9 -12 0 -14 -7 -9 -27z"/>
<path d="M1058 4583 c7 -3 16 -2 19 1 4 3 -2 6 -13 5 -11 0 -14 -3 -6 -6z"/>
<path d="M1410 4382 c0 -5 7 -9 15 -9 8 0 12 4 9 9 -3 4 -9 8 -15 8 -5 0 -9
-4 -9 -8z"/>
<path d="M895 4320 c-3 -5 -1 -10 4 -10 6 0 11 5 11 10 0 6 -2 10 -4 10 -3 0
-8 -4 -11 -10z"/>
<path d="M991 4302 c0 -7 -12 -17 -26 -22 -14 -6 -25 -17 -25 -28 0 -15 5 -18
25 -14 31 5 34 -16 5 -41 -11 -9 -20 -21 -20 -26 0 -18 18 -21 31 -5 12 15 14
14 21 -7 5 -18 6 -13 5 16 -2 35 1 40 21 43 18 3 22 10 22 38 0 24 -5 34 -15
34 -8 0 -15 -4 -15 -10 0 -20 -19 -10 -23 13 -2 12 -5 16 -6 9z"/>
<path d="M1591 4274 c0 -11 3 -14 6 -6 3 7 2 16 -1 19 -3 4 -6 -2 -5 -13z"/>
<path d="M1086 4265 c4 -8 11 -15 16 -15 6 0 5 6 -2 15 -7 8 -14 15 -16 15 -2
0 -1 -7 2 -15z"/>
<path d="M9757 4273 c-9 -16 -29 -125 -23 -130 3 -3 26 5 51 18 25 13 41 27
36 32 -5 5 -18 4 -30 -2 -13 -7 -21 -8 -21 -2 0 6 9 15 20 21 11 6 18 15 15
21 -4 5 -11 7 -16 4 -5 -4 -9 -1 -9 5 0 6 11 15 25 20 14 5 25 12 25 15 0 8
-68 6 -73 -2z"/>
<path d="M9707 4263 c-4 -3 -7 -20 -7 -37 l-1 -31 -22 28 c-13 15 -26 27 -30
27 -5 0 -15 -16 -23 -35 -16 -40 -35 -45 -49 -14 -16 34 -25 28 -48 -31 -19
-46 -26 -56 -50 -58 -26 -3 -27 -2 -21 25 11 43 10 66 -3 70 -7 3 -15 -8 -18
-24 -3 -15 -9 -46 -15 -68 -11 -50 -1 -61 38 -41 17 9 39 16 49 16 9 0 27 12
40 28 l22 27 15 -22 c20 -27 56 -20 56 11 0 11 3 31 6 43 l6 23 19 -24 c11
-13 19 -29 19 -35 0 -6 6 -11 14 -11 12 0 26 64 26 123 0 17 -11 22 -23 10z"/>
<path d="M850 4205 c0 -8 7 -15 15 -15 8 0 15 4 15 9 0 5 -7 11 -15 15 -9 3
-15 0 -15 -9z"/>
<path d="M9270 4130 c0 -37 -16 -39 -32 -5 -14 32 -30 27 -44 -13 -8 -25 -13
-29 -22 -20 -7 7 -12 18 -12 25 0 24 -31 14 -66 -21 -38 -38 -43 -65 -16 -89
20 -19 67 -23 77 -7 3 6 15 10 25 10 14 0 21 10 26 35 9 47 23 53 37 16 13
-34 47 -43 47 -12 0 10 3 39 6 65 6 38 4 46 -10 46 -11 0 -16 -9 -16 -30z
m-120 -60 c0 -30 -30 -57 -50 -45 -15 9 -12 19 11 49 27 34 39 33 39 -4z"/>
<path d="M958 4113 c7 -3 16 -2 19 1 4 3 -2 6 -13 5 -11 0 -14 -3 -6 -6z"/>
<path d="M8955 4084 c-38 -14 -79 -34 -91 -45 l-21 -20 -6 21 c-8 30 -27 15
-27 -21 0 -36 -13 -38 -29 -3 -6 14 -17 24 -24 22 -28 -10 -51 -138 -24 -138
7 0 14 11 15 23 1 13 5 34 10 46 8 22 9 21 27 -13 22 -40 45 -48 45 -15 0 19
1 19 16 5 23 -24 49 -19 88 14 25 22 33 26 32 14 0 -9 4 -19 11 -21 8 -3 16
17 24 56 9 43 18 63 31 67 20 6 25 35 6 33 -7 -1 -44 -12 -83 -25z m25 -38 c0
-18 -15 -36 -32 -36 -10 0 -33 -7 -49 -16 -17 -8 -33 -13 -37 -10 -7 8 29 47
53 57 21 8 65 12 65 5z m-100 -86 c0 -5 -2 -10 -4 -10 -3 0 -8 5 -11 10 -3 6
-1 10 4 10 6 0 11 -4 11 -10z"/>
<path d="M8681 3970 c-6 -28 -11 -60 -11 -72 0 -34 27 -3 35 40 3 20 9 47 12
60 4 15 1 22 -10 22 -10 0 -19 -17 -26 -50z"/>
<path d="M8640 3980 c0 -36 -16 -39 -32 -5 -19 42 -34 31 -55 -40 l-12 -40 5
43 c5 34 3 42 -10 42 -9 0 -16 -8 -16 -17 0 -10 -4 -25 -9 -32 -8 -12 -12 -10
-22 12 -14 30 -22 33 -41 14 -7 -8 -19 -12 -26 -9 -7 2 -24 1 -37 -2 -20 -5
-26 -17 -38 -69 -14 -61 -14 -62 -27 -34 -12 24 -11 30 9 51 26 28 10 48 -18
22 -14 -12 -20 -13 -30 -3 -18 18 -30 -5 -57 -115 -9 -41 14 -35 32 7 16 40
24 43 42 15 9 -16 19 -19 40 -14 15 4 33 11 40 17 7 5 26 10 41 9 31 -1 40 15
41 68 l1 25 19 -24 c11 -13 20 -29 20 -37 0 -24 30 -16 31 9 1 16 2 18 6 5 8
-33 33 -20 39 22 8 48 21 51 37 10 6 -16 17 -30 24 -30 13 0 19 15 28 83 5 39
3 47 -9 47 -11 0 -16 -9 -16 -30z m-204 -66 c-3 -9 -6 -21 -6 -28 0 -7 -11
-18 -25 -24 -28 -13 -34 1 -7 17 15 9 15 12 2 21 -13 9 -13 11 0 20 23 15 43
12 36 -6z"/>
<path d="M1301 3784 c0 -11 3 -14 6 -6 3 7 2 16 -1 19 -3 4 -6 -2 -5 -13z"/>
<path d="M1255 3780 c3 -5 8 -10 11 -10 2 0 4 5 4 10 0 6 -5 10 -11 10 -5 0
-7 -4 -4 -10z"/>
<path d="M18767 3613 c-3 -3 -3 -11 0 -19 5 -15 53 -20 53 -6 0 11 -46 33 -53
25z"/>
<path d="M1498 3603 c7 -3 16 -2 19 1 4 3 -2 6 -13 5 -11 0 -14 -3 -6 -6z"/>
<path d="M1494 3533 c1 -35 20 -33 24 2 2 16 -2 25 -11 25 -9 0 -14 -10 -13
-27z"/>
<path d="M1468 3333 c7 -3 16 -2 19 1 4 3 -2 6 -13 5 -11 0 -14 -3 -6 -6z"/>
<path d="M1580 2851 c0 -13 29 -35 37 -28 7 8 -15 37 -28 37 -5 0 -9 -4 -9 -9z"/>
<path d="M2980 2002 c0 -10 -6 -24 -12 -31 -11 -10 -10 -11 5 -6 15 6 26 55
12 55 -3 0 -5 -8 -5 -18z"/>
<path d="M3100 1890 c0 -10 9 -24 20 -30 17 -9 20 -8 20 8 0 18 -18 42 -32 42
-4 0 -8 -9 -8 -20z"/>
</g>
</svg>
