<svg width="426" height="54" viewBox="0 0 426 54" xmlns="http://www.w3.org/2000/svg"><title>Co-Mission</title><g fill="#FFF"><path d="M27.414 52.862C11.074 52.862 0 41.857 0 27.021c0-14.904 11.074-25.91 27.414-25.91 5.811 0 11.144 1.707 15.655 4.376l-3.555 9.844c-3.692-2.051-7.862-3.349-11.964-3.349-9.365 0-15.176 5.743-15.176 15.039s5.811 15.043 15.176 15.043c4.102 0 8.751-1.371 12.512-3.695l3.486 9.847c-4.376 2.87-10.392 4.646-16.134 4.646m43.621-41.36c-7.931 0-13.263 6.495-13.263 15.519 0 8.955 5.332 15.519 13.263 15.519 7.929 0 13.262-6.564 13.262-15.519 0-9.024-5.333-15.519-13.262-15.519zm-.206 41.36c-15.519 0-25.431-11.143-25.431-25.841 0-14.767 10.391-25.91 25.91-25.91 15.45 0 25.431 11.143 25.431 25.91 0 14.698-10.46 25.841-25.91 25.841z"/><path d="M101.668 38.78L119.239 38.78 119.239 31.602 101.668 31.602z"/><path d="M166.617 52.042L166.001 27.433 152.123 45 150.894 45 136.878 27.433 136.399 52.042 125.188 52.042 127.512 1.589 129.085 1.453 151.781 30.097 173.932 1.453 175.504 1.589 177.897 52.042 166.617 52.042"/><path d="M186.451 52.042L198.073 52.042 198.073 1.931 186.451 1.931z"/><path d="M220.43 52.862c-5.674 0-12.51-2.255-16.886-5.127l3.215-10.527c4.031 2.939 9.295 4.856 14.014 4.856 4.101 0 5.675-1.917 5.675-4.378 0-2.597-1.301-4.374-8.958-7.452-8.817-3.555-11.894-8.681-11.894-14.699 0-7.314 5.948-14.424 17.636-14.424 5.47 0 11.077 1.913 14.016 3.897l-2.939 10.391c-2.87-1.982-7.52-4.1-11.077-4.1-4.238 0-5.945 1.981-5.945 4.032 0 3.281 2.529 4.376 8.817 7.041 9.366 3.965 12.17 8.478 12.17 14.903 0 8-5.813 15.587-17.844 15.587m37.058 0c-5.674 0-12.51-2.255-16.886-5.127l3.215-10.527c4.032 2.939 9.295 4.856 14.014 4.856 4.1 0 5.673-1.917 5.673-4.378 0-2.597-1.299-4.374-8.956-7.452-8.817-3.555-11.894-8.681-11.894-14.699 0-7.314 5.947-14.424 17.636-14.424 5.47 0 11.079 1.913 14.014 3.897l-2.935 10.391c-2.873-1.982-7.523-4.1-11.079-4.1-4.237 0-5.946 1.981-5.946 4.032 0 3.281 2.53 4.376 8.818 7.041 9.368 3.965 12.171 8.478 12.171 14.903 0 8-5.812 15.587-17.845 15.587"/><path d="M281.762 52.042L293.383 52.042 293.383 1.931 281.762 1.931z"/><path d="M326.542 11.502c-7.928 0-13.262 6.495-13.262 15.519 0 8.955 5.334 15.519 13.262 15.519 7.931 0 13.264-6.564 13.264-15.519 0-9.024-5.333-15.519-13.264-15.519zm-.203 41.36c-15.52 0-25.432-11.143-25.432-25.841 0-14.767 10.391-25.91 25.91-25.91 15.45 0 25.432 11.143 25.432 25.91 0 14.698-10.459 25.841-25.91 25.841z"/><path d="M401.272 53L371.056 25.859 371.056 52.042 359.433 52.042 359.433 1.247 361.006 0.975 390.813 27.911 390.813 1.931 402.436 1.931 402.436 52.793 401.272 53"/><path d="M409.971 27.087a7.613 7.613 0 1 1 7.612 7.612 7.612 7.612 0 0 1-7.612-7.612m0-17.543a7.612 7.612 0 0 1 7.612-7.611 7.613 7.613 0 0 1 7.614 7.611 7.616 7.616 0 0 1-7.614 7.616 7.615 7.615 0 0 1-7.612-7.616m0 35.083a7.613 7.613 0 1 1 15.227.001 7.613 7.613 0 0 1-15.227-.001"/></g></svg>