<?xml version="1.0" encoding="UTF-8"?>
<svg width="325px" height="187px" viewBox="0 0 325 187" version="1.1" xmlns="http://www.w3.org/2000/svg" xmlns:xlink="http://www.w3.org/1999/xlink">
    <!-- Generator: Sketch 48.2 (47327) - http://www.bohemiancoding.com/sketch -->
    <title>Artboard Copy</title>
    <desc>Created with Sketch.</desc>
    <defs></defs>
    <g id="Take-Two" stroke="none" stroke-width="1" fill="none" fill-rule="evenodd">
        <g id="Artboard-Copy">
            <g id="Hope-Logo">
                <polygon id="Rectangle" fill="#0E48B0" points="28.4019975 1.62962963 160.471286 110.203704 292.540574 1.62962963 292.540574 78.0521739 160.471286 186.796296 28.4019975 78.2222222"></polygon>
                <path d="M28.3900639,1.63242009 L28.3900639,27.7511416 L45.8608724,27.7511416 L45.8608724,1.63242009 L74.2509363,1.63242009 L74.2509363,77.8120244 L45.8608724,77.8120244 L45.8608724,51.6933029 L28.3900639,51.6933029 L28.3900639,77.8120244 L0,77.8120244 L0,1.63242009 L28.3900639,1.63242009 Z M141.683681,39.7222222 C141.683681,32.1042618 136.240261,26.6628615 129.708158,26.6628615 C123.176055,26.6628615 117.732635,32.1042618 117.732635,39.7222222 C117.732635,47.3401826 123.176055,52.781583 129.708158,52.781583 C136.240261,52.781583 141.683681,47.3401826 141.683681,39.7222222 Z M172.16683,39.7222222 C172.16683,62.0319635 154.747887,79.4444444 129.708158,79.4444444 C104.668429,79.4444444 87.2494863,62.0319635 87.2494863,39.7222222 C87.2494863,17.412481 104.668429,0 129.708158,0 C154.747887,0 172.16683,17.412481 172.16683,39.7222222 Z M217.978761,0.54414003 C241.665531,0.54414003 252.432245,11.4269406 252.432245,27.2070015 C252.432245,42.9870624 241.665531,53.869863 223.362118,53.869863 C219.055432,53.869863 213.672075,53.325723 213.672075,53.325723 L213.672075,77.8120244 L185.678619,77.8120244 L185.678619,1.63242009 C185.678619,1.63242009 200.752018,0.54414003 217.978761,0.54414003 Z M213.672075,33.1925419 L217.978761,33.1925419 C221.747111,33.1925419 224.438789,30.4718417 224.438789,27.2070015 C224.438789,23.9421613 221.747111,21.2214612 217.978761,21.2214612 L213.672075,21.2214612 L213.672075,33.1925419 Z M292.613028,50.6050228 L292.613028,56.0464231 L325,56.0464231 L325,78.0521739 L264.54432,78.0521739 L264.54432,1.63242009 L325,1.63242009 L325,23.3980213 L292.613028,23.3980213 L292.613028,28.8394216 L320.681737,28.8394216 L320.681737,50.6050228 L292.613028,50.6050228 Z" id="HOPE" fill="#FAFDF2"></path>
            </g>
        </g>
    </g>
</svg>