<svg width="800" height="492" viewBox="0 0 800 492" xmlns="http://www.w3.org/2000/svg" xmlns:xlink="http://www.w3.org/1999/xlink"><title>Hope Church Logo</title><defs><path id="a" d="M0 0L330 266.5 650 0 650 187 330 453.5 0 187z"/><path d="M18.693.719h6.076L13.95 24h-2.79L.31.719h6.138l6.107 13.237L18.693.719zM40.922 24h-6.107L45.665.75h2.759L59.367 24H53.26l-1.426-3.038h-9.517L40.922 24zm6.169-13.299l-2.387 5.115h4.743l-2.356-5.115zM79.674.75v13.981a3.043 3.043 0 0 0 3.038 3.038 3.043 3.043 0 0 0 3.038-3.038V.75h6.138v14.074A9.155 9.155 0 0 1 82.712 24c-5.115 0-9.176-4.061-9.176-9.176V.75h6.138zm42.193 0h7.44l-7.75 11.129L130.082 24h-7.44l-4.805-6.82-4.836 6.82h-7.44l8.525-12.121L106.336.75h7.44l4.061 5.797 4.03-5.797zm21.95 0h6.107v8.277h7.378V.75h6.107V24h-6.107v-8.866h-7.378V24h-6.107V.75zM183.747 24h-6.107L188.49.75h2.759L202.192 24h-6.107l-1.426-3.038h-9.517L183.747 24zm6.169-13.299l-2.387 5.115h4.743l-2.356-5.115zM216.392 24V.75h6.107v17.112h8.37V24h-14.477zm29.948 0V.75h6.107v17.112h8.37V24H246.34z" id="c"/><path d="M26.092 21.72zm0 0L32 31.074s-4.43 5.415-13.785 5.415C7.877 36.49 0 28.612 0 18.52 0 8.428 7.877.55 18.215.55 27.57.55 32 5.967 32 5.967l-5.908 9.354s-2.954-2.708-6.4-2.708-5.907 2.462-5.907 5.908 2.461 5.908 5.907 5.908 6.399-2.707 6.4-2.708zM60.123 1.29v11.815H68V1.289h12.8v34.462H68V23.935h-7.877v11.816h-12.8V1.289h12.8zm54.708 22.892c2.215 0 3.938-1.724 3.938-4.431V1.289h12.8v18.462c0 9.846-6.892 16.738-16.738 16.738s-16.739-6.892-16.739-16.738V1.289h12.8v18.462c0 2.707 1.723 4.43 3.939 4.43zm68 11.569h-14.77l-5.907-11.323h-.492V35.75h-12.8V1.289s6.892-.492 14.276-.492c10.831 0 15.754 4.923 15.754 12.061 0 7.139-4.43 9.6-4.43 9.6l8.369 13.293zm-21.17-20.185h1.477c1.724 0 2.954-1.23 2.954-2.708 0-1.476-1.23-2.707-2.954-2.707h-1.476v5.415zM195.2 18.52c0-10.092 7.877-17.97 18.215-17.97 9.354 0 13.785 5.416 13.785 5.416l-5.908 9.354s-2.954-2.708-6.4-2.708-5.907 2.462-5.907 5.908 2.461 5.908 5.907 5.908 6.4-2.708 6.4-2.708l5.908 9.354s-4.43 5.415-13.785 5.415c-10.338 0-18.215-7.877-18.215-17.969zm60.123-17.23v11.815h7.877V1.289H276v34.462h-12.8V23.935h-7.877v11.816h-12.8V1.289h12.8z" id="e"/><path d="M70 4v64h43V4h70v187h-70l-.112-64H70v64H0V4h70zm278.76 93.5c0-18.699-13.4-32.055-29.478-32.055-16.08 0-29.479 13.356-29.479 32.055 0 18.699 13.4 32.055 29.479 32.055S348.76 116.199 348.76 97.5zm75.035 0c0 54.76-42.877 97.5-104.513 97.5-61.637 0-104.514-42.74-104.514-97.5S257.645 0 319.282 0c61.636 0 104.513 42.74 104.513 97.5zM536.563 1.336c58.306 0 84.809 26.712 84.809 65.445 0 38.733-26.503 65.445-71.558 65.445-10.6 0-23.852-1.336-23.852-1.336V191h-68.907V4.007c0-.007 37.104-2.671 79.508-2.671zM526 81.473h10.563c9.276 0 15.902-6.678 15.902-14.692s-6.626-14.692-15.902-14.692H526v29.384zM720 124v13h80v54H651.186V4H800v53.432L720 57v14h69v53h-69z" id="g"/></defs><g fill="none" fill-rule="evenodd"><g transform="translate(70 4)"><mask id="b" fill="#fff"><use xlink:href="#a"/></mask><use fill="#EB4749" xlink:href="#a"/><g mask="url(#b)" fill="#ff3140"><path transform="translate(-70 -49)" d="M0 0H800V544H0z"/></g></g><g transform="translate(265 468)"><mask id="d" fill="#fff"><use xlink:href="#c"/></mask><use fill="#000" xlink:href="#c"/><g mask="url(#d)" fill="#000"><path transform="translate(-36 -20)" d="M0 0H317V63H0z"/></g></g><g transform="translate(260 217)"><mask id="f" fill="#fff"><use xlink:href="#e"/></mask><use fill="#000" xlink:href="#e"/><g mask="url(#f)" fill="#000"><path transform="translate(-26 -19)" d="M0 0H332V79H0z"/></g></g><mask id="h" fill="#fff"><use xlink:href="#g"/></mask><use fill="#000" xlink:href="#g"/><g mask="url(#h)" fill="#000"><path transform="translate(-29 -16)" d="M0 0H854V229H0z"/></g></g></svg>
